<?xml version="1.0" encoding="utf-8"?>
<!-- Generator: Adobe Illustrator 21.1.0, SVG Export Plug-In . SVG Version: 6.00 Build 0)  -->
<svg version="1.1" id="logo_cloud_s" xmlns="http://www.w3.org/2000/svg" xmlns:xlink="http://www.w3.org/1999/xlink" x="0px"
	 y="0px" width="300px" height="144px" viewBox="0 0 300 144" style="enable-background:new 0 0 300 144;" xml:space="preserve">
<style type="text/css">
	.st0{fill:#0088FB;}
	.st1{fill:#2C2C2C;}
</style>
<title>cs1</title>
<g id="g2">
	<path id="c19" class="st0" d="M3.1,116.7c0,1.7,0.3,3.4,1,5c0.6,1.5,1.6,2.9,2.7,4.1c1.2,1.2,2.5,2.1,4,2.8c1.6,0.7,3.2,1,5,1
		c1.8,0,3.5-0.3,5.2-1.1c1.6-0.7,3-1.7,4.1-3c0.3-0.3,0.6-0.5,1-0.6c0.4-0.1,0.8,0,1.1,0.2c0.4,0.3,0.6,0.7,0.5,1.2
		c0,0.5-0.1,0.9-0.4,1.3c-1.4,1.6-3.2,2.8-5.1,3.7c-2,0.9-4.2,1.3-6.4,1.3c-2.1,0-4.2-0.4-6.1-1.2c-1.9-0.8-3.6-2-5-3.4
		c-1.4-1.5-2.6-3.2-3.4-5.1c-1.6-4-1.6-8.4,0-12.4c1.6-3.8,4.6-6.9,8.4-8.5c1.9-0.8,4-1.3,6.1-1.3c2.1,0,4.3,0.4,6.2,1.3
		c1.9,0.8,3.6,2,5.1,3.5c0.3,0.3,0.5,0.6,0.6,1c0.1,0.4,0.1,0.8-0.1,1.1c-0.3,0.4-0.7,0.6-1.2,0.6c-0.5,0-1-0.1-1.3-0.5
		c-1.3-1.1-2.7-2-4.2-2.8c-1.6-0.8-3.3-1.3-5.1-1.2c-1.7,0-3.4,0.3-5,1c-1.5,0.7-2.9,1.6-4,2.8c-1.1,1.2-2.1,2.6-2.7,4.1
		C3.4,113.3,3.1,115,3.1,116.7z"/>
	<path id="c18" class="st0" d="M39.8,131.2c0,0.8-0.7,1.5-1.5,1.5c0,0,0,0,0,0c-1.3,0-2.6-0.3-3.8-0.9c-1.9-1-3.3-2.7-3.9-4.7
		c-0.3-0.8-0.4-1.6-0.4-2.5v-22.3c0-0.9,0.7-1.5,1.5-1.5c0.8,0,1.5,0.7,1.5,1.5v22.3c0,0.4,0.1,0.8,0.2,1.2c0.1,0.6,0.4,1.1,0.7,1.6
		c0.9,1.4,2.5,2.2,4.2,2.2C39.1,129.6,39.8,130.3,39.8,131.2C39.8,131.2,39.8,131.2,39.8,131.2z"/>
	<path id="c17" class="st0" d="M51.4,108.6c1.6,0,3.1,0.3,4.5,1c2.9,1.3,5.1,3.6,6.4,6.4c1.3,3,1.3,6.3,0,9.3
		c-0.6,1.4-1.5,2.7-2.6,3.8c-2.2,2.3-5.3,3.6-8.5,3.5c-3.1,0-6.2-1.2-8.4-3.4c-1.1-1.1-2-2.4-2.6-3.8c-0.7-1.5-1-3.1-1-4.8
		c0-3.2,1.3-6.2,3.5-8.4c1.1-1.1,2.4-2,3.8-2.6C48.1,109,49.7,108.7,51.4,108.6z M42.5,120.7c0,1.2,0.2,2.4,0.7,3.4
		c0.9,2.1,2.6,3.8,4.7,4.7c1.1,0.5,2.3,0.7,3.4,0.7c1.2,0,2.4-0.2,3.5-0.7c1.1-0.4,2-1.1,2.9-1.9c0.8-0.8,1.4-1.8,1.8-2.8
		c0.5-1.1,0.7-2.3,0.7-3.4c0-1.2-0.2-2.3-0.7-3.4c-0.9-2.2-2.6-3.9-4.8-4.8c-1.1-0.5-2.3-0.7-3.5-0.7c-1.2,0-2.4,0.2-3.4,0.7
		c-2.1,0.9-3.8,2.6-4.7,4.8C42.6,118.3,42.4,119.5,42.5,120.7L42.5,120.7z"/>
	<path id="c16" class="st0" d="M65.5,110.1c0-0.9,0.7-1.5,1.5-1.5c0.8,0,1.5,0.7,1.5,1.5c0,0,0,0,0,0v10.6c0,1.2,0.2,2.4,0.7,3.4
		c0.9,2.1,2.6,3.8,4.7,4.7c2.2,0.9,4.7,0.9,6.9,0c2.1-0.9,3.8-2.6,4.7-4.7c0.5-1.1,0.7-2.3,0.7-3.4v-10.6c0-0.9,0.7-1.5,1.5-1.5
		c0.8,0,1.5,0.7,1.5,1.5c0,0,0,0,0,0v10.6c0,1.6-0.3,3.2-0.9,4.7c-1.2,2.9-3.5,5.2-6.3,6.4c-3,1.3-6.3,1.3-9.3,0
		c-2.9-1.2-5.1-3.5-6.3-6.4c-0.6-1.5-1-3.1-1-4.7L65.5,110.1z"/>
	<path id="c15" class="st0" d="M102.9,108.6c1.8,0,3.5,0.5,5.1,1.4c1.5,0.8,2.8,1.9,4,3.1v-10.8c0-0.9,0.7-1.5,1.5-1.5
		c0.8,0,1.5,0.7,1.5,1.5c0,0,0,0,0,0v18.4c0,1.6-0.3,3.3-1,4.8c-0.6,1.4-1.5,2.7-2.6,3.8c-1.1,1.1-2.4,1.9-3.8,2.5
		c-1.5,0.6-3,0.9-4.6,0.9c-3.2,0-6.3-1.2-8.5-3.5c-1.1-1.1-1.9-2.4-2.6-3.8c-1.3-3-1.3-6.3,0-9.3c1.3-2.9,3.5-5.2,6.4-6.4
		C99.7,109,101.3,108.6,102.9,108.6z M111.8,120.7c-0.1-1.2-0.3-2.4-0.8-3.6c-0.5-1.1-1.1-2-1.9-2.8c-1.6-1.6-3.8-2.5-6.1-2.5
		c-1.2,0-2.4,0.2-3.5,0.7c-2.1,0.9-3.9,2.6-4.8,4.8c-0.5,1.1-0.7,2.3-0.7,3.5c0,1.2,0.2,2.4,0.7,3.4c0.9,2.1,2.6,3.8,4.8,4.7
		c1.1,0.5,2.3,0.7,3.5,0.7c1.2,0,2.4-0.2,3.4-0.7c2.1-0.9,3.8-2.6,4.7-4.7C111.6,123.1,111.8,121.9,111.8,120.7L111.8,120.7z"/>
	<path id="c14" class="st1" d="M147.2,108.3c0-0.6-0.3-1.2-0.6-1.7c-0.4-0.6-1-1.1-1.6-1.5c-0.7-0.4-1.5-0.8-2.3-1
		c-0.9-0.3-1.9-0.4-2.8-0.4c-1,0-1.9,0.1-2.9,0.4c-0.8,0.2-1.6,0.5-2.3,1c-0.6,0.4-1.2,0.9-1.6,1.5c-0.4,0.6-0.6,1.2-0.6,1.9
		c0,0.7,0.3,1.3,0.7,1.8c0.5,0.6,1.2,1.1,1.9,1.4c0.8,0.4,1.6,0.7,2.4,1c0.8,0.3,1.6,0.4,2.4,0.5c1.5,0.2,2.9,0.5,4.3,1.1
		c1.3,0.5,2.4,1.2,3.5,2.1c1,0.8,1.8,1.8,2.3,2.9c0.6,1.1,0.9,2.4,0.8,3.6c0,1.3-0.3,2.6-0.9,3.8c-0.6,1.2-1.4,2.2-2.4,3.1
		c-2.2,1.8-5,2.8-7.9,2.8c-1.5,0-3-0.2-4.4-0.7c-1.3-0.5-2.5-1.2-3.6-2.1c-1-0.8-1.8-1.9-2.4-3.1c-0.6-1.2-0.9-2.4-0.9-3.7
		c0-0.8,0.6-1.4,1.4-1.4c0.8,0,1.4,0.6,1.4,1.4c0,0.9,0.2,1.8,0.6,2.6c0.4,0.8,1,1.5,1.8,2.1c0.8,0.6,1.7,1.1,2.6,1.4
		c1,0.4,2.1,0.5,3.2,0.5c1.1,0,2.2-0.2,3.3-0.5c1-0.3,1.9-0.8,2.7-1.4c0.7-0.6,1.4-1.3,1.8-2.1c0.4-0.8,0.6-1.7,0.5-2.6
		c-0.1-0.9-0.3-1.7-0.8-2.4c-0.5-0.8-1.1-1.4-1.8-2c-0.8-0.6-1.6-1.1-2.5-1.4c-1-0.4-2-0.7-3-0.8c-1.3-0.1-2.7-0.4-4-0.8
		c-1.2-0.4-2.3-0.9-3.3-1.7c-0.9-0.6-1.7-1.4-2.3-2.4c-0.6-0.9-0.9-1.9-0.9-3c0-1.1,0.3-2.1,0.8-3.1c0.6-1,1.3-1.8,2.3-2.5
		c1-0.7,2.1-1.3,3.3-1.7c2.7-0.8,5.5-0.8,8.2,0c1.2,0.4,2.3,0.9,3.3,1.7c0.9,0.7,1.7,1.5,2.3,2.5c0.5,0.9,0.8,2,0.8,3.1
		c0,0.8-0.7,1.5-1.5,1.5c0,0,0,0,0,0c-0.4,0-0.8-0.2-1.1-0.5C147.3,109.3,147.2,108.8,147.2,108.3z"/>
	<path id="c13" class="st1" d="M170.8,114.3c-0.8-0.7-1.8-1.3-2.8-1.8c-1.1-0.5-2.2-0.7-3.4-0.7c-1.2,0-2.4,0.2-3.4,0.7
		c-2.1,0.9-3.8,2.6-4.7,4.8c-0.5,1.1-0.7,2.3-0.7,3.5c0,1.2,0.2,2.4,0.7,3.5c0.9,2.1,2.6,3.8,4.7,4.7c1.1,0.5,2.3,0.7,3.4,0.7
		c1.2,0,2.3-0.2,3.4-0.7c1-0.4,2-1,2.8-1.8c0.6-0.6,1.6-0.6,2.2,0c0.3,0.3,0.4,0.7,0.4,1.1c0,0.5-0.2,0.9-0.6,1.2
		c-0.4,0.4-0.8,0.7-1.2,1c-0.6,0.4-1.2,0.8-1.8,1.1c-0.8,0.3-1.6,0.6-2.4,0.8c-4,1-8.3-0.2-11.3-3.1c-1.1-1.1-2-2.4-2.6-3.8
		c-0.7-1.5-1-3.1-1-4.8c0-3.2,1.2-6.2,3.4-8.4c1.1-1.1,2.4-2,3.8-2.6c1.5-0.7,3.1-1,4.8-1.1c0.9,0,1.9,0.1,2.8,0.4
		c0.8,0.2,1.5,0.5,2.3,0.9c0.6,0.3,1.2,0.7,1.8,1.1c0.5,0.4,1,0.7,1.3,1c0.3,0.3,0.4,0.6,0.5,0.9c0.1,0.4,0,0.9-0.3,1.2
		C172.4,114.9,171.4,114.9,170.8,114.3L170.8,114.3z"/>
	<path id="c12" class="st1" d="M175.8,120.5c0-1.6,0.3-3.1,0.9-4.6c1.2-2.9,3.4-5.1,6.3-6.4c1.4-0.6,3-1,4.6-1
		c0.5,0,0.9,0.1,1.3,0.4c0.6,0.6,0.6,1.5,0.1,2.1c0,0,0,0-0.1,0.1c-0.3,0.3-0.8,0.5-1.3,0.4c-1.2,0-2.3,0.3-3.4,0.8
		c-1,0.5-2,1.1-2.8,1.9c-0.8,0.8-1.4,1.8-1.9,2.8c-0.4,1.1-0.7,2.2-0.7,3.4v10.7c0,0.9-0.7,1.5-1.5,1.5c-0.8,0-1.5-0.7-1.5-1.5
		L175.8,120.5z"/>
	<path id="c11" class="st1" d="M190.1,103.2c0-1.1,0.9-2,2-2c1.1,0,2,0.9,2,2c0,1.1-0.9,2-2,2c-0.5,0-1.1-0.2-1.4-0.6
		C190.4,104.3,190.1,103.7,190.1,103.2z M190.6,110.1c0-0.9,0.7-1.5,1.5-1.5c0.8,0,1.5,0.7,1.5,1.5v21.1c0,0.9-0.7,1.5-1.5,1.5
		c-0.8,0-1.5-0.7-1.5-1.5V110.1z"/>
	<path id="c10" class="st1" d="M208.5,132.7c-1.8,0-3.5-0.5-5.1-1.4c-1.5-0.8-2.8-1.9-4-3.1v11.9c0,0.9-0.7,1.5-1.5,1.5
		c-0.8,0-1.5-0.7-1.5-1.5v-19.5c0-1.6,0.3-3.3,1-4.8c0.6-1.4,1.5-2.7,2.6-3.8c2.3-2.2,5.3-3.4,8.4-3.4c3.2,0,6.3,1.2,8.5,3.5
		c1.1,1.1,1.9,2.4,2.6,3.8c1.3,3,1.3,6.3,0,9.3c-1.3,2.9-3.5,5.2-6.4,6.4C211.6,132.3,210,132.7,208.5,132.7z M199.6,120.6
		c0,1.2,0.3,2.5,0.8,3.6c0.5,1.1,1.2,2,2,2.8c1.6,1.6,3.8,2.5,6.1,2.5c1.2,0,2.4-0.2,3.5-0.7c2.1-0.9,3.9-2.6,4.8-4.8
		c0.5-1.1,0.7-2.3,0.7-3.5c0-1.2-0.2-2.4-0.7-3.4c-0.9-2.1-2.6-3.8-4.8-4.7c-1.1-0.5-2.3-0.7-3.5-0.7c-1.2,0-2.4,0.2-3.4,0.7
		c-2.1,0.9-3.8,2.6-4.7,4.7C199.8,118.2,199.5,119.4,199.6,120.6L199.6,120.6z"/>
	<path id="c9" class="st1" d="M222,102.4c0-0.9,0.7-1.5,1.5-1.5c0.8,0,1.5,0.7,1.5,1.5v6.1h10.9c0.5,0,0.9,0.1,1.3,0.4
		c0.6,0.6,0.6,1.5,0.1,2.1c0,0,0,0-0.1,0.1c-0.3,0.3-0.8,0.5-1.3,0.4h-10.9v9.2c0,1.2,0.2,2.4,0.7,3.4c0.9,2.1,2.6,3.8,4.7,4.7
		c1.1,0.5,2.3,0.7,3.4,0.7c1.2,0,2.3-0.2,3.4-0.7c1-0.4,2-1.1,2.8-1.9c0.3-0.3,0.6-0.5,1-0.5c0.4,0,0.8,0.1,1.2,0.3
		c0.3,0.3,0.4,0.6,0.5,1c0.1,0.4,0,0.8-0.2,1.1c-1.1,1.2-2.4,2.1-3.9,2.7c-1.5,0.7-3.1,1-4.8,1c-1.6,0-3.2-0.3-4.7-1
		c-2.9-1.2-5.1-3.5-6.3-6.4c-0.6-1.5-1-3.1-1-4.7L222,102.4z"/>
	<path id="c8" class="st1" d="M243.9,103.2c0-1.1,0.9-2,2-2c1.1,0,2,0.9,2,2c0,1.1-0.9,2-2,2c-0.5,0-1.1-0.2-1.4-0.6
		C244.1,104.3,243.9,103.7,243.9,103.2z M244.4,110.1c0-0.9,0.7-1.5,1.5-1.5c0.8,0,1.5,0.7,1.5,1.5v21.1c0,0.9-0.7,1.5-1.5,1.5
		c-0.8,0-1.5-0.7-1.5-1.5V110.1z"/>
	<path id="c7" class="st1" d="M250.1,120.5c0-1.6,0.3-3.2,1-4.7c1.2-2.9,3.5-5.2,6.3-6.4c3-1.3,6.3-1.3,9.3,0
		c2.9,1.2,5.1,3.5,6.3,6.4c0.6,1.5,1,3.1,0.9,4.7v10.7c0,0.9-0.7,1.5-1.5,1.5c-0.8,0-1.5-0.7-1.5-1.5v-10.6c0-1.2-0.2-2.4-0.7-3.4
		c-0.9-2.2-2.6-3.9-4.8-4.8c-2.2-0.9-4.7-0.9-6.9,0c-2.1,0.9-3.8,2.6-4.7,4.7c-0.5,1.1-0.7,2.3-0.7,3.4v10.7c0,0.9-0.7,1.5-1.5,1.5
		s-1.5-0.7-1.5-1.5L250.1,120.5z"/>
	<path id="c6" class="st1" d="M285.3,141.6c-0.5,0.1-0.9,0.2-1.3,0.5c-0.5,0.3-0.9,0.6-1.1,1.1c-0.2,0.4-0.5,0.6-0.9,0.7
		c-0.4,0.1-0.8,0.1-1.2,0c-0.4-0.2-0.6-0.5-0.7-0.9c-0.1-0.4-0.1-0.8,0.1-1.1c0.5-1,1.2-1.8,2.1-2.4c0.9-0.6,2-0.9,3.1-0.9h6.5
		c2.8,0,5.1-2.3,5.1-5.1c0-0.7-0.1-1.3-0.4-1.9c-0.2-0.6-0.6-1.2-1.1-1.6c-1,0.8-2.2,1.5-3.5,2c-1.3,0.5-2.7,0.7-4.1,0.7
		c-3.1,0-6.2-1.2-8.4-3.4c-1.1-1.1-2-2.4-2.6-3.8c-0.6-1.5-1-3.1-0.9-4.8c0-3.2,1.2-6.2,3.4-8.4c1.1-1.1,2.4-2,3.8-2.6
		c1.5-0.7,3.1-1,4.8-1.1c1.6,0,3.1,0.3,4.5,1c2.9,1.3,5.1,3.6,6.4,6.4c0.7,1.5,1,3.1,1,4.7c0,2.6-0.8,5.1-2.4,7.1
		c0.7,0.7,1.3,1.6,1.7,2.6c0.9,2,0.9,4.3,0,6.3c-0.4,1-1,1.8-1.7,2.6c-0.7,0.7-1.6,1.3-2.6,1.8c-1,0.4-2.1,0.7-3.2,0.6L285.3,141.6z
		 M279.1,120.6c0,1.2,0.2,2.4,0.7,3.5c0.9,2.1,2.6,3.8,4.7,4.7c1.1,0.5,2.3,0.7,3.4,0.7c1.2,0,2.4-0.2,3.5-0.7
		c1.1-0.4,2-1.1,2.9-1.9c0.8-0.8,1.5-1.8,1.9-2.8c0.5-1.1,0.7-2.3,0.7-3.5c0-1.2-0.2-2.4-0.7-3.5c-0.9-2.2-2.6-3.9-4.8-4.8
		c-1.1-0.5-2.3-0.7-3.5-0.7c-1.2,0-2.4,0.2-3.4,0.7c-1.1,0.4-2,1.1-2.8,1.9c-0.8,0.8-1.5,1.8-1.9,2.9
		C279.4,118.2,279.1,119.4,279.1,120.6z"/>
</g>
<g id="g1">
	<path id="c5" class="st0" d="M138.5,58.8c-5.6,0.1-10.1-4.4-10.2-10c0,0,0,0,0,0c-0.2-5.5,4.1-10.1,9.6-10.3c0.2,0,0.4,0,0.6,0
		c2.9,0,5.6,1.2,7.6,3.2l2.4-2.9c-5.3-5.5-14.1-5.7-19.6-0.3c-2.7,2.6-4.2,6.2-4.2,9.9c-0.1,7.8,6.1,14.2,13.8,14.3
		c4.1,0.1,8.1-1.7,10.8-4.8l-2.3-3.3C144.9,57.3,141.8,58.8,138.5,58.8z"/>
	<path id="c4" class="st0" d="M163.2,45.8c-4.4,0-5.5-1.5-5.5-3.1c0.3-2.7,2.7-4.6,5.3-4.4c3-0.1,5.9,1.1,8,3.2l2.4-2.9
		c-2.7-2.9-6.6-4.4-10.5-4.2c-4.9-0.3-9.2,3.5-9.5,8.4c0,4.5,3.5,7.1,9.5,7.1c3.7,0,7.7,0,7.7,4.1c0,3.4-3.8,4.8-7.7,4.8
		c-3.2-0.1-6.1-1.6-7.9-4.2l-2.7,2.6c2.5,3.4,6.4,5.4,10.5,5.5c6.5,0,11.5-3.5,11.5-8.7C174.4,48.7,172.3,45.8,163.2,45.8z"/>
	<polygon id="c3" class="st0" points="106.8,52 120.2,61.1 120.2,56.4 110.6,50.2 120.2,44 120.2,39.3 106.8,48.5 	"/>
	<polygon id="c2" class="st0" points="180,44 189.6,50.2 180,56.4 180,61.1 193.4,52 193.4,48.5 180,39.3 	"/>
	<path id="c1" class="st0" d="M245.1,44.8c-0.6-2.7-3-4.6-5.8-4.6c-2.9,0-5.3,2.1-5.8,4.9h-7.7c-0.2,0-0.4,0.1-0.6,0.2l-8.4,5.6
		h-6.1c-1.4-8-6.4-14.9-13.5-18.9h4.2c0.4-0.1,0.7-0.3,0.8-0.6l6-9.3h7.8c0.6,3.2,3.7,5.4,6.9,4.7c2.8-0.5,4.9-3.1,4.8-6
		c0.1-3.3-2.5-6-5.8-6.1c-2.9-0.1-5.4,2-6,4.8h-8.4c-0.4,0-0.8,0.2-1,0.6l-6,9.3h-6.7c-4.3-8.9-13.2-14.6-23.2-14.7
		c-2,0-4.1,0.2-6.1,0.7C158.1,5.9,147.1,0.1,135.4,0c-17.4,0.3-31.9,12.8-35.2,29.5h-0.5l-6.2-9.3c-0.2-0.3-0.6-0.6-1-0.6h-8.4
		c-0.9-3.2-4.1-5.1-7.3-4.2c-2.5,0.7-4.3,2.9-4.4,5.5c-0.1,3.3,2.5,6,5.8,6.1c2.9,0.1,5.4-2,6-4.8h7.8l6,9.3c0.2,0.3,0.6,0.6,1,0.6
		h0.8c-0.1,0.5-0.1,1-0.2,1.6C93.8,37.7,90,44,88.8,50.9h-5.3L75,45.3c-0.2-0.1-0.4-0.2-0.6-0.2h-7.7c-0.5-2.8-3-4.9-5.8-4.9
		c-3.4,0-6.2,2.8-6.2,6.2s2.8,6.2,6.2,6.2c2.9,0,5.3-2.1,5.8-4.9H74l8.4,5.6c0.2,0.1,0.4,0.2,0.6,0.2h5.4c-0.1,0.8-0.1,1.6-0.1,2.5
		c-0.1,4.5,1,8.8,3,12.6l-4.9,8.8h-6.2c-0.7-3.3-3.9-5.5-7.3-4.8c-3.3,0.7-5.5,3.9-4.8,7.3c0.7,3.3,3.9,5.5,7.3,4.8
		c2.4-0.5,4.3-2.4,4.8-4.8h7c0.4,0,0.8-0.2,1-0.6l4.6-8.1c4.7,7,12.6,11.7,21.6,11.9H185c9.4-0.1,17.6-5.2,22.2-12.7l5,8.9
		c0.2,0.4,0.6,0.6,1,0.6h7c0.8,3.2,4,5.2,7.2,4.4c3.2-0.8,5.2-4,4.4-7.2c-0.6-2.7-3-4.6-5.8-4.6h-0.2c-2.8,0.1-5.2,2.1-5.7,4.9h-6.3
		l-5.2-9.3c0-0.1-0.1-0.2-0.2-0.2c1.7-3.6,2.7-7.6,2.6-11.9c0-0.8,0-1.7-0.1-2.5h6.2c0.2,0,0.4-0.1,0.6-0.2l8.4-5.6h7.3
		c0.8,3.2,4,5.2,7.2,4.4C243.9,51.2,245.9,48,245.1,44.8z M218.4,20.8c-0.1-1.9,1.4-3.6,3.4-3.7c0,0,0.1,0,0.1,0l0,0.1
		c2-0.1,3.8,1.5,3.9,3.5c0.1,2-1.5,3.8-3.5,3.9c-2,0.1-3.8-1.5-3.9-3.5C218.4,21.1,218.4,21,218.4,20.8z M81.8,21.2
		c0,1.9-1.6,3.5-3.5,3.5c-2,0.1-3.8-1.5-3.9-3.5c-0.1-2,1.5-3.8,3.5-3.9c2-0.1,3.8,1.5,3.9,3.5C81.9,20.9,81.9,21,81.8,21.2z
		 M60.9,50.1c-2,0-3.7-1.7-3.7-3.7c0-2,1.7-3.7,3.7-3.7c2,0,3.7,1.7,3.7,3.7C64.6,48.4,62.9,50.1,60.9,50.1z M77.9,78.6
		c0,1.9-1.6,3.5-3.5,3.5c-2,0.1-3.8-1.5-3.9-3.5s1.5-3.8,3.5-3.9c2-0.1,3.8,1.5,3.9,3.5C77.9,78.4,77.9,78.5,77.9,78.6z M225.5,74.8
		c2-0.1,3.8,1.5,3.9,3.5c0,0.1,0,0.2,0,0.3c0,1.9-1.6,3.5-3.5,3.5c-2,0.1-3.8-1.5-3.9-3.5C221.9,76.6,223.5,74.9,225.5,74.8z
		 M185,79.8h-70.5c-13-0.3-23.3-11-23.1-24c0-8,3.9-15.6,10.5-20.1l0.6-0.4v-0.7c1.2-17.5,15.5-31.2,32.9-31.5
		c11.2,0,21.5,5.7,27.6,15.1l0.6,0.9l1-0.3c2-0.6,4.2-0.9,6.3-0.9c9.3,0.1,17.6,5.9,21.1,14.6l0.2,0.6l0.6,0.2
		c9.2,3.6,15.3,12.6,15.3,22.5C208.3,68.8,197.9,79.6,185,79.8z M242.9,46.5c0,1.9-1.6,3.5-3.5,3.5c-2,0.1-3.8-1.5-3.9-3.5
		c-0.1-2,1.5-3.8,3.5-3.9c2-0.1,3.8,1.5,3.9,3.5C242.9,46.3,242.9,46.4,242.9,46.5z"/>
</g>
</svg>
