<svg id="a97d4de8-13ef-4a3c-94af-32cfed63b5d9" data-name="cs logo" xmlns="http://www.w3.org/2000/svg" width="172" height="24" viewBox="0 0 172 24"><title>cs2</title><g id="c44d8059-1723-4ec7-b45b-3bf399f9bf3e" data-name="g4"><path id="346466d1-8a7e-418a-b3cf-f8800eec05bd" data-name="c23" d="M13,19.1H10.72a.34.34,0,0,0-.29.17L8.95,21.9H7.19a1.75,1.75,0,1,0,0,.7h2a.34.34,0,0,0,.29-.17l1.48-2.63H13a.35.35,0,0,0,0-.7ZM5.53,23.3a1.05,1.05,0,1,1,1-1A1,1,0,0,1,5.53,23.3Z" fill="#00abff"/><path id="5cd80eb2-5d01-497d-81b7-a290d4099cc2" data-name="c22" d="M15.91,14.43H8.11l-2.4-1.58a.33.33,0,0,0-.18-.05H3.35a1.71,1.71,0,0,0-1.66-1.4,1.75,1.75,0,0,0,0,3.5,1.71,1.71,0,0,0,1.66-1.4H5.43l2.4,1.58a.33.33,0,0,0,.18.05h7.9a.35.35,0,0,0,0-.7ZM1.69,14.2a1.05,1.05,0,0,1,0-2.1,1.05,1.05,0,0,1,0,2.1Z" fill="#00abff"/><path id="ad13d09b-de89-4234-9bb3-2df0d23abcdb" data-name="c21" d="M19.75,8.37h-7L11,5.72a.34.34,0,0,0-.28-.16H8.32A1.69,1.69,0,0,0,5,5.92a1.69,1.69,0,0,0,3.35.35h2.22l1.7,2.64a.34.34,0,0,0,.28.16h7.22a.35.35,0,0,0,0-.7ZM6.66,7a1.05,1.05,0,1,1,1-1A1,1,0,0,1,6.66,7Z" fill="#00abff"/><path id="09fe5965-951e-49e4-8620-b9d412443ca7" data-name="c20" d="M41.92,8.91l1.7-2.64h2.22a1.69,1.69,0,0,0,3.35-.35,1.69,1.69,0,0,0-3.35-.35h-2.4a.34.34,0,0,0-.28.16l-1.7,2.64h-7a.35.35,0,0,0,0,.7h7.22A.34.34,0,0,0,41.92,8.91Zm5.59-4a1.05,1.05,0,1,1-1,1A1,1,0,0,1,47.5,4.87Z" fill="#00abff"/><path id="9f179990-49ae-432c-bddf-e7bd0e465a83" data-name="c19" d="M52.47,11.4a1.71,1.71,0,0,0-1.66,1.4H48.63a.33.33,0,0,0-.18.05l-2.4,1.58h-7.8a.35.35,0,0,0,0,.7h7.9a.33.33,0,0,0,.18-.05l2.4-1.58h2.08a1.7,1.7,0,1,0,1.66-2.1Zm0,2.8a1.05,1.05,0,1,1,1-1A1,1,0,0,1,52.47,14.2Z" fill="#00abff"/><path id="680a8acc-9434-4f38-9a2e-855452c99970" data-name="c18" d="M48.63,20.5A1.71,1.71,0,0,0,47,21.9H45.22l-1.48-2.63a.34.34,0,0,0-.29-.17H41.19a.35.35,0,0,0,0,.7h2.06l1.48,2.63a.34.34,0,0,0,.29.17h2a1.7,1.7,0,1,0,1.66-2.1Zm0,2.8a1.05,1.05,0,1,1,1-1A1,1,0,0,1,48.63,23.3Z" fill="#00abff"/></g><path id="4fb46777-7537-4778-909e-1f4043184a7a" data-name="back" d="M39.38,9a7,7,0,0,0-6.44-4.39,6.78,6.78,0,0,0-1.9.27A9.73,9.73,0,0,0,22.91.44a10,10,0,0,0-9.78,9.33,7.29,7.29,0,0,0-3.19,6.07,7.12,7.12,0,0,0,7,7.23H37a7.12,7.12,0,0,0,7-7.23A7.23,7.23,0,0,0,39.38,9Z" fill="#3e4357"/><path id="b654e7ca-81c4-4d3c-9ad6-7968561098d0" data-name="contur" d="M37,23.5H16.93a7.56,7.56,0,0,1-7.42-7.67,7.72,7.72,0,0,1,3.21-6.32A10.42,10.42,0,0,1,22.91,0a10.14,10.14,0,0,1,8.32,4.41,7.19,7.19,0,0,1,1.73-.21A7.4,7.4,0,0,1,39.7,8.69a7.69,7.69,0,0,1,4.73,7.15A7.55,7.55,0,0,1,37,23.5ZM22.91.87A9.57,9.57,0,0,0,13.54,9.8l0,.21-.17.12a6.84,6.84,0,0,0-3,5.7,6.7,6.7,0,0,0,6.57,6.8H37a6.7,6.7,0,0,0,6.57-6.8,6.81,6.81,0,0,0-4.34-6.39l-.17-.06L39,9.2a6.57,6.57,0,0,0-6-4.13,6.38,6.38,0,0,0-1.79.26l-.29.09-.17-.26A9.31,9.31,0,0,0,22.91.87Z" fill="#00abff"/><g id="e5e755eb-d7c0-44dd-9790-f3e3955c4d16" data-name="g3"><path id="9d56ddaa-32dd-4447-a8b9-889d4c66a654" data-name="c18" d="M23.77,16.66a2.87,2.87,0,0,1-2.91-2.84,2.83,2.83,0,0,1,2.9-2.92,2.94,2.94,0,0,1,2.15.92L26.6,11a3.95,3.95,0,0,0-6.79,2.71,4,4,0,0,0,7,2.71l-.66-.93A2.87,2.87,0,0,1,23.77,16.66Z" fill="#00abff"/><path id="a3ce2120-0b2e-44e5-90c2-32a705e9201b" data-name="c17" d="M30.82,13c-1.25,0-1.57-.42-1.57-.88a1.43,1.43,0,0,1,1.52-1.25,3.12,3.12,0,0,1,2.29.9l.67-.81a3.93,3.93,0,0,0-3-1.2,2.57,2.57,0,0,0-2.71,2.38c0,1.29,1,2,2.71,2,1.06,0,2.18,0,2.18,1.16,0,.95-1.09,1.37-2.18,1.37a2.88,2.88,0,0,1-2.26-1.19l-.77.74a3.86,3.86,0,0,0,3,1.56c1.86,0,3.28-1,3.28-2.48S33.39,13,30.82,13Z" fill="#00abff"/><polygon id="b78a3094-2437-40f7-baef-961668631603" data-name="c16" points="14.75 14.74 18.58 17.32 18.58 16 15.85 14.24 18.58 12.48 18.58 11.15 14.75 13.74 14.75 14.74" fill="#00abff"/><polygon id="32562a4f-b8b9-4edc-9436-00f3074dabb3" data-name="c15" points="35.58 11.15 35.58 12.48 38.31 14.24 35.58 16 35.58 17.32 39.41 14.74 39.41 13.74 35.58 11.15" fill="#00abff"/></g><g id="64ff538a-288e-41f5-bfea-f3fd95e09bdf" data-name="g2"><path id="2068171a-9e59-429d-81be-e1ce2b64cc68" data-name="c15" d="M68.7,15.17a.72.72,0,0,0-.38.23A4.65,4.65,0,0,1,64.8,17a4.49,4.49,0,0,1-1.87-.4,4.8,4.8,0,0,1-1.52-1.07,5.15,5.15,0,0,1-1-5.44,5.18,5.18,0,0,1,1-1.59,4.74,4.74,0,0,1,1.52-1.08A4.49,4.49,0,0,1,64.8,7a4,4,0,0,1,1.92.48A8.21,8.21,0,0,1,68.3,8.55a.6.6,0,0,0,.49.19.54.54,0,0,0,.44-.25A.51.51,0,0,0,69.29,8a1,1,0,0,0-.22-.39,6.14,6.14,0,0,0-1.91-1.37,5.71,5.71,0,0,0-4.66,0A6,6,0,0,0,60.6,7.61a6.3,6.3,0,0,0-1.27,2,6.42,6.42,0,0,0,0,4.81,6.3,6.3,0,0,0,1.27,2,5.91,5.91,0,0,0,1.89,1.32,5.63,5.63,0,0,0,2.32.48,5.74,5.74,0,0,0,4.35-1.95.72.72,0,0,0,.17-.49.59.59,0,0,0-.21-.47A.48.48,0,0,0,68.7,15.17Z" fill="#00abff"/><path id="fe912293-9f62-452a-92f2-8ca4c76dae1f" data-name="c14" d="M73.3,17a1.85,1.85,0,0,1-1-.27,1.94,1.94,0,0,1-.58-.58,2,2,0,0,1-.27-.64A2.44,2.44,0,0,1,71.4,15V6.38A.59.59,0,0,0,71.23,6a.57.57,0,0,0-.82,0,.59.59,0,0,0-.17.42V15a3.47,3.47,0,0,0,.16,1,3.17,3.17,0,0,0,.52,1,2.91,2.91,0,0,0,2.38,1.16.55.55,0,0,0,.41-.17.62.62,0,0,0,0-.85A.55.55,0,0,0,73.3,17Z" fill="#00abff"/><path id="15b8e443-5fb1-441c-9ef2-f56cf9cd4724" data-name="c13" d="M81.37,10.23a4.74,4.74,0,0,0-1.43-1,4,4,0,0,0-1.71-.38,4.79,4.79,0,0,0-1.8.42,4.63,4.63,0,0,0-2.74,4.28A4.76,4.76,0,0,0,74,15.38a4.47,4.47,0,0,0,2.4,2.43,4.39,4.39,0,0,0,1.75.35A4.3,4.3,0,0,0,80,17.8a4.46,4.46,0,0,0,1.43-1,4.87,4.87,0,0,0,1-1.48,4.69,4.69,0,0,0,0-3.6A4.87,4.87,0,0,0,81.37,10.23Zm-.07,4.64a3.51,3.51,0,0,1-.72,1.1,3.35,3.35,0,0,1-1.07.74,3.22,3.22,0,0,1-1.31.27,3.15,3.15,0,0,1-1.3-.27A3.38,3.38,0,0,1,75.83,16a3.5,3.5,0,0,1-.72-1.1,3.45,3.45,0,0,1-.26-1.34,3.52,3.52,0,0,1,.26-1.35,3.48,3.48,0,0,1,.72-1.11,3.38,3.38,0,0,1,1.06-.74,3.15,3.15,0,0,1,1.3-.27,3.22,3.22,0,0,1,1.31.27,3.35,3.35,0,0,1,1.07.74,3.49,3.49,0,0,1,.72,1.11,3.53,3.53,0,0,1,.26,1.35A3.46,3.46,0,0,1,81.29,14.87Z" fill="#00abff"/><path id="75791a49-de0c-45b7-abd8-7b0f8ba55ac8" data-name="c12" d="M92,8.8a.55.55,0,0,0-.41.17.59.59,0,0,0-.17.42v4.13a3.45,3.45,0,0,1-.26,1.34,3.51,3.51,0,0,1-.72,1.1,3.39,3.39,0,0,1-1.06.74,3.25,3.25,0,0,1-2.6,0A3.38,3.38,0,0,1,85.69,16a3.51,3.51,0,0,1-.72-1.1,3.45,3.45,0,0,1-.26-1.34V9.4A.59.59,0,0,0,84.54,9a.57.57,0,0,0-.82,0,.59.59,0,0,0-.17.42v4.13a4.73,4.73,0,0,0,1.32,3.29,4.53,4.53,0,0,0,1.43,1,4.38,4.38,0,0,0,3.51,0,4.54,4.54,0,0,0,1.43-1,4.73,4.73,0,0,0,1.32-3.29V9.4A.59.59,0,0,0,92.39,9,.55.55,0,0,0,92,8.8Z" fill="#00abff"/><path id="61e5d23a-0432-4a2e-aab9-e17c5f679320" data-name="c11" d="M102,6a.57.57,0,0,0-.82,0,.59.59,0,0,0-.17.42v4.21a6.19,6.19,0,0,0-1.48-1.21,4,4,0,0,0-1.9-.55,4,4,0,0,0-1.71.38,4.74,4.74,0,0,0-1.43,1,4.89,4.89,0,0,0-1,1.49,4.69,4.69,0,0,0,0,3.6,4.87,4.87,0,0,0,1,1.48,4.46,4.46,0,0,0,1.43,1,4.3,4.3,0,0,0,1.77.37,4.41,4.41,0,0,0,1.74-.35,4.46,4.46,0,0,0,1.44-1,4.51,4.51,0,0,0,1-1.47,4.76,4.76,0,0,0,.35-1.85V6.38A.59.59,0,0,0,102,6Zm-1.25,8.91a3.51,3.51,0,0,1-.72,1.1,3.39,3.39,0,0,1-1.06.74,3.15,3.15,0,0,1-1.3.27,3.22,3.22,0,0,1-1.31-.27A3.35,3.35,0,0,1,95.31,16a3.49,3.49,0,0,1-.72-1.1,3.44,3.44,0,0,1-.26-1.34,3.52,3.52,0,0,1,.26-1.35,3.47,3.47,0,0,1,.72-1.11,3.35,3.35,0,0,1,1.07-.74,3.22,3.22,0,0,1,1.31-.27,3.14,3.14,0,0,1,1.27.26,3.25,3.25,0,0,1,1,.72,3.58,3.58,0,0,1,.72,1.1,4.05,4.05,0,0,1,.31,1.39A3.45,3.45,0,0,1,100.77,14.87Z" fill="#00abff"/></g><g id="96fbe0a7-0c09-4bdf-993e-b31d84d3f0b3" data-name="g1"><path id="96e52468-be26-4db2-ae97-225f8a96dd9b" data-name="c11" d="M114.5,11.91a4.93,4.93,0,0,0-1.32-.8,5.83,5.83,0,0,0-1.62-.42,5.36,5.36,0,0,1-.92-.21,5,5,0,0,1-.91-.39,2.58,2.58,0,0,1-.7-.55,1,1,0,0,1-.28-.7A1.33,1.33,0,0,1,109,8.1a2.08,2.08,0,0,1,.6-.6,3.08,3.08,0,0,1,.89-.4A4,4,0,0,1,111.57,7a3.84,3.84,0,0,1,1.06.14,3.24,3.24,0,0,1,.89.4,2.21,2.21,0,0,1,.61.57,1.26,1.26,0,0,1,.24.67.8.8,0,0,0,.18.49.51.51,0,0,0,.4.18.55.55,0,0,0,.41-.17.59.59,0,0,0,.17-.42,2.39,2.39,0,0,0-.31-1.19,3.17,3.17,0,0,0-.85-1A4.33,4.33,0,0,0,113.11,6,5,5,0,0,0,110,6a4.33,4.33,0,0,0-1.26.66,3.17,3.17,0,0,0-.85,1,2.39,2.39,0,0,0-.31,1.19,2.18,2.18,0,0,0,.33,1.17,3.25,3.25,0,0,0,.87.93,4.8,4.8,0,0,0,1.26.65,5.85,5.85,0,0,0,1.5.31,5,5,0,0,1,1.11.32,3.75,3.75,0,0,1,.94.56,3,3,0,0,1,.67.77,2.09,2.09,0,0,1,.3.94,1.9,1.9,0,0,1-.21,1,2.49,2.49,0,0,1-.68.82,3.47,3.47,0,0,1-1,.55,3.71,3.71,0,0,1-1.23.2,3.63,3.63,0,0,1-1.22-.2,3.24,3.24,0,0,1-1-.55,2.58,2.58,0,0,1-.66-.82,2.19,2.19,0,0,1-.24-1,.55.55,0,0,0-.16-.4.53.53,0,0,0-.77,0,.55.55,0,0,0-.16.4,3.28,3.28,0,0,0,.33,1.45,3.75,3.75,0,0,0,.91,1.19,4.31,4.31,0,0,0,1.34.8,4.61,4.61,0,0,0,1.64.29,4.47,4.47,0,0,0,1.64-.3,4.56,4.56,0,0,0,1.34-.8,3.62,3.62,0,0,0,.91-1.19,3.34,3.34,0,0,0,.33-1.46,3.14,3.14,0,0,0-.32-1.4A3.54,3.54,0,0,0,114.5,11.91Z" fill="#c5cbe6"/><path id="710cb7ae-70b8-40a5-bc6f-ea7575b89696" data-name="c10" d="M123.71,15.86a.55.55,0,0,0-.41.17,3.47,3.47,0,0,1-1.06.72,3.19,3.19,0,0,1-1.29.26,3.14,3.14,0,0,1-1.3-.27,3.37,3.37,0,0,1-1.06-.74,3.5,3.5,0,0,1-.72-1.1,3.45,3.45,0,0,1-.26-1.34,3.53,3.53,0,0,1,.26-1.35,3.48,3.48,0,0,1,.72-1.11,3.38,3.38,0,0,1,1.06-.74,3.15,3.15,0,0,1,1.3-.27,3.2,3.2,0,0,1,1.29.26,3.87,3.87,0,0,1,1.06.69.57.57,0,0,0,.82,0,.44.44,0,0,0,.12-.47.8.8,0,0,0-.2-.36q-.19-.17-.49-.41a4.75,4.75,0,0,0-.68-.43A4.86,4.86,0,0,0,122,9a3.55,3.55,0,0,0-1-.14,4.78,4.78,0,0,0-1.8.41,4.57,4.57,0,0,0-2.39,2.47,4.7,4.7,0,0,0-.35,1.81,4.76,4.76,0,0,0,.35,1.85,4.47,4.47,0,0,0,2.4,2.43,4.39,4.39,0,0,0,1.75.35,4.34,4.34,0,0,0,1.07-.13,4.77,4.77,0,0,0,.9-.32,3.94,3.94,0,0,0,.69-.42,4.2,4.2,0,0,0,.46-.4.7.7,0,0,0,.21-.47.57.57,0,0,0-.16-.43A.55.55,0,0,0,123.71,15.86Z" fill="#c5cbe6"/><path id="6296467b-9a48-4b8e-a64d-7c569ef3adbf" data-name="c9" d="M129.59,8.8a4.31,4.31,0,0,0-1.72.39,4.53,4.53,0,0,0-1.41,1,4.72,4.72,0,0,0-1,1.48,4.65,4.65,0,0,0-.35,1.79v4.13a.59.59,0,0,0,.17.42.57.57,0,0,0,.82,0,.59.59,0,0,0,.17-.42V13.45a3.51,3.51,0,0,1,.25-1.32,3.35,3.35,0,0,1,.7-1.09,3.51,3.51,0,0,1,1-.74,3.18,3.18,0,0,1,1.27-.3.65.65,0,0,0,.48-.17.6.6,0,0,0,0-.85A.65.65,0,0,0,129.59,8.8Z" fill="#c5cbe6"/><path id="fb163f70-c7e0-4dc7-9abb-26639ec879b5" data-name="c8" d="M131.36,8.8A.55.55,0,0,0,131,9a.59.59,0,0,0-.17.42v8.19A.59.59,0,0,0,131,18a.57.57,0,0,0,.82,0,.59.59,0,0,0,.17-.42V9.4a.59.59,0,0,0-.17-.42A.55.55,0,0,0,131.36,8.8Z" fill="#c5cbe6"/><path id="56d37d69-f1d9-42d7-b531-ef0ce60a971d" data-name="c7" d="M131.36,5.94a.73.73,0,0,0-.54.23.81.81,0,0,0,0,1.12.75.75,0,0,0,1.08,0,.81.81,0,0,0,0-1.12A.72.72,0,0,0,131.36,5.94Z" fill="#c5cbe6"/><path id="7c4ad9c1-bf3c-4c1e-9a15-67a763e74554" data-name="c6" d="M140.65,10.23a4.47,4.47,0,0,0-1.43-1,4.31,4.31,0,0,0-1.77-.37,4.4,4.4,0,0,0-1.75.35,4.48,4.48,0,0,0-2.4,2.43,4.76,4.76,0,0,0-.35,1.85v7.59a.59.59,0,0,0,.17.42.57.57,0,0,0,.82,0,.59.59,0,0,0,.17-.42V16.42a6.16,6.16,0,0,0,1.48,1.21,3.94,3.94,0,0,0,1.9.55,4,4,0,0,0,1.71-.38,4.75,4.75,0,0,0,1.43-1,4.89,4.89,0,0,0,1-1.49,4.69,4.69,0,0,0,0-3.6A4.87,4.87,0,0,0,140.65,10.23Zm-.1,4.61a3.48,3.48,0,0,1-.72,1.11,3.35,3.35,0,0,1-1.07.74,3.22,3.22,0,0,1-1.31.27,3.14,3.14,0,0,1-1.27-.26,3.24,3.24,0,0,1-1-.72,3.72,3.72,0,0,1-.73-1.1,3.64,3.64,0,0,1-.3-1.39,3.45,3.45,0,0,1,.26-1.34,3.49,3.49,0,0,1,.72-1.1,3.39,3.39,0,0,1,1.06-.74,3.16,3.16,0,0,1,1.3-.27,3.23,3.23,0,0,1,1.31.27,3.36,3.36,0,0,1,1.07.74,3.51,3.51,0,0,1,.72,1.1,3.46,3.46,0,0,1,.26,1.34A3.53,3.53,0,0,1,140.55,14.84Z" fill="#c5cbe6"/><path id="698e5a51-b5e5-4e26-a922-d78286fcfada" data-name="c5" d="M150.24,15.92a.59.59,0,0,0-.44-.13.58.58,0,0,0-.38.2,3.24,3.24,0,0,1-1,.72,3.19,3.19,0,0,1-1.29.26,3.15,3.15,0,0,1-1.3-.27,3.38,3.38,0,0,1-1.06-.74,3.5,3.5,0,0,1-.72-1.1,3.45,3.45,0,0,1-.26-1.34V10h4.13a.65.65,0,0,0,.48-.17.6.6,0,0,0,0-.85.65.65,0,0,0-.48-.17h-4.13V6.38a.59.59,0,0,0-.17-.42.57.57,0,0,0-.82,0,.59.59,0,0,0-.17.42v7.14a4.73,4.73,0,0,0,1.32,3.29,4.53,4.53,0,0,0,1.43,1,4.25,4.25,0,0,0,1.76.37,4.36,4.36,0,0,0,3.25-1.43.63.63,0,0,0,.09-.44A.7.7,0,0,0,150.24,15.92Z" fill="#c5cbe6"/><path id="ffbaf70d-36c7-4768-8ba2-c68b930e18e6" data-name="c4" d="M151.63,5.94a.73.73,0,0,0-.54.23.81.81,0,0,0,0,1.12.75.75,0,0,0,1.08,0,.81.81,0,0,0,0-1.12A.72.72,0,0,0,151.63,5.94Z" fill="#c5cbe6"/><path id="de3742ac-2245-40af-9076-ff67fc9b4554" data-name="c3" d="M151.63,8.8a.55.55,0,0,0-.41.17.59.59,0,0,0-.17.42v8.19a.59.59,0,0,0,.17.42.57.57,0,0,0,.82,0,.59.59,0,0,0,.17-.42V9.4A.59.59,0,0,0,152,9,.55.55,0,0,0,151.63,8.8Z" fill="#c5cbe6"/><path id="ae69e459-e057-458b-a079-55fc752e0ac1" data-name="c2" d="M160.86,10.16a4.55,4.55,0,0,0-1.43-1,4.38,4.38,0,0,0-3.51,0,4.54,4.54,0,0,0-1.43,1,4.71,4.71,0,0,0-1,1.48,4.66,4.66,0,0,0-.35,1.81v4.13a.59.59,0,0,0,.17.42.57.57,0,0,0,.82,0,.59.59,0,0,0,.17-.42V13.45a3.45,3.45,0,0,1,.26-1.34,3.51,3.51,0,0,1,.72-1.1,3.38,3.38,0,0,1,1.06-.74,3.25,3.25,0,0,1,2.6,0A3.39,3.39,0,0,1,160,11a3.51,3.51,0,0,1,.72,1.1,3.45,3.45,0,0,1,.26,1.34v4.13a.59.59,0,0,0,.17.42.57.57,0,0,0,.82,0,.59.59,0,0,0,.17-.42V13.45a4.67,4.67,0,0,0-.35-1.81A4.73,4.73,0,0,0,160.86,10.16Z" fill="#c5cbe6"/><path id="59071447-8df3-454c-83f1-767ba8032f56" data-name="c1" d="M171.1,16.25a4.54,4.54,0,0,0,.66-1.28,4.66,4.66,0,0,0,.23-1.48,4.56,4.56,0,0,0-.36-1.81,4.89,4.89,0,0,0-1-1.49,4.75,4.75,0,0,0-1.43-1,4,4,0,0,0-1.71-.38,4.79,4.79,0,0,0-1.8.42,4.57,4.57,0,0,0-2.39,2.47,4.7,4.7,0,0,0-.35,1.81,4.76,4.76,0,0,0,.35,1.85,4.47,4.47,0,0,0,2.4,2.43,4.39,4.39,0,0,0,1.75.35,4.27,4.27,0,0,0,1.53-.27,4.78,4.78,0,0,0,1.31-.75,1.88,1.88,0,0,1,.4.63,2.06,2.06,0,0,1,0,1.52,2,2,0,0,1-.41.64,1.92,1.92,0,0,1-.62.42,1.85,1.85,0,0,1-.75.15h-2.47a2,2,0,0,0-1.18.36,2.24,2.24,0,0,0-.78.92.64.64,0,0,0,0,.44.56.56,0,0,0,.27.35.6.6,0,0,0,.45,0,.58.58,0,0,0,.34-.29,1.26,1.26,0,0,1,.43-.42,1.17,1.17,0,0,1,.5-.19h2.47a2.9,2.9,0,0,0,1.2-.25,3,3,0,0,0,1-.69,3.38,3.38,0,0,0,.65-1,3.22,3.22,0,0,0,0-2.45A3.25,3.25,0,0,0,171.1,16.25Zm-.52-1.42a3.51,3.51,0,0,1-.72,1.1,3.34,3.34,0,0,1-1.07.74,3.21,3.21,0,0,1-1.31.27,3.15,3.15,0,0,1-1.3-.27,3.37,3.37,0,0,1-1.06-.74,3.5,3.5,0,0,1-.72-1.1,3.45,3.45,0,0,1-.26-1.34,3.52,3.52,0,0,1,.26-1.35,3.47,3.47,0,0,1,.72-1.11,3.39,3.39,0,0,1,1.06-.74,3.16,3.16,0,0,1,1.3-.27,3.23,3.23,0,0,1,1.31.27,3.36,3.36,0,0,1,1.07.74,3.48,3.48,0,0,1,.72,1.11,3.53,3.53,0,0,1,.26,1.35A3.45,3.45,0,0,1,170.58,14.83Z" fill="#c5cbe6"/></g></svg>