<svg id="c3e18878-28ee-414e-9adf-a0e46c3003b9" data-name="a97d4de8-13ef-4a3c-94af-32cfed63b5d9" xmlns="http://www.w3.org/2000/svg" width="221" height="30" viewBox="0 0 221 30"><title>cs2</title><g id="63665876-cdb8-405e-9c98-9f64b2f61cc7" data-name="c44d8059-1723-4ec7-b45b-3bf399f9bf3e"><path id="cf7c89c1-1aaa-4fd7-a1ed-b0915798b8d9" data-name="346466d1-8a7e-418a-b3cf-f8800eec05bd" d="M16.77,23.87H13.84a.44.44,0,0,0-.37.21l-1.9,3.29H9.31a2.25,2.25,0,0,0-2.65-1.71,2.19,2.19,0,0,0-1.75,2.58A2.25,2.25,0,0,0,7.56,30a2.22,2.22,0,0,0,1.75-1.71h2.57a.44.44,0,0,0,.37-.21l1.9-3.29h2.62a.44.44,0,1,0,0-.87ZM7.18,29.12a1.31,1.31,0,1,1,1.28-1.37s0,.08,0,.12A1.27,1.27,0,0,1,7.18,29.12Z" fill="#00abff"/><path id="6d89539d-2314-4478-97b0-61c8683ce7a0" data-name="5cd80eb2-5d01-497d-81b7-a290d4099cc2" d="M20.51,18h-10l-3.08-2A.43.43,0,0,0,7.18,16H4.38a2.18,2.18,0,0,0-2.13-1.75,2.19,2.19,0,1,0,0,4.37,2.18,2.18,0,0,0,2.13-1.75H7.05l3.08,2a.43.43,0,0,0,.23.06H20.51a.44.44,0,1,0,0-.87ZM2.25,17.75a1.31,1.31,0,1,1,0-2.62,1.31,1.31,0,1,1,0,2.62Z" fill="#00abff"/><path id="32eaa48e-6c97-42b8-88ca-e0b9cbbe08f9" data-name="ad13d09b-de89-4234-9bb3-2df0d23abcdb" d="M25.44,10.46h-9L14.2,7.15a.44.44,0,0,0-.36-.2H10.76A2.18,2.18,0,0,0,8.1,5.46,2.13,2.13,0,0,0,6.5,7.4a2.18,2.18,0,0,0,4.3.44h2.85l2.18,3.3a.44.44,0,0,0,.36.2h9.27a.44.44,0,1,0,0-.87ZM8.63,8.75A1.31,1.31,0,1,1,9.91,7.38s0,.08,0,.12A1.27,1.27,0,0,1,8.63,8.75Z" fill="#00abff"/><path id="06c53b56-cb3e-4a05-bcba-3f37c6f5c130" data-name="09fe5965-951e-49e4-8620-b9d412443ca7" d="M53.91,11.14l2.18-3.3h2.85a2.17,2.17,0,0,0,2.54,1.68,2.16,2.16,0,0,0-.36-4.27A2.16,2.16,0,0,0,58.94,7H55.86a.44.44,0,0,0-.36.2l-2.18,3.3h-9a.44.44,0,1,0,0,.87H53.6A.44.44,0,0,0,53.91,11.14Zm7.18-5a1.31,1.31,0,1,1-1.28,1.37s0-.08,0-.12A1.26,1.26,0,0,1,61,6.09h0Z" fill="#00abff"/><path id="4f375e23-e5c4-4ad1-8fe1-fc622ee17513" data-name="9f179990-49ae-432c-bddf-e7bd0e465a83" d="M67.46,14.25A2.18,2.18,0,0,0,65.33,16h-2.8a.43.43,0,0,0-.23.06l-3.08,2h-10a.44.44,0,1,0,0,.87H59.34a.43.43,0,0,0,.23-.06l3.08-2h2.67A2.19,2.19,0,0,0,68,18.44a2.12,2.12,0,0,0,1.61-2.57A2.17,2.17,0,0,0,67.46,14.25Zm0,3.5a1.31,1.31,0,1,1,1.28-1.37s0,.08,0,.12A1.27,1.27,0,0,1,67.46,17.75Z" fill="#00abff"/><path id="ae520c29-2e23-4b01-90f8-e5bba4898510" data-name="680a8acc-9434-4f38-9a2e-855452c99970" d="M62.53,25.62a2.18,2.18,0,0,0-2.09,1.75H58.15l-1.9-3.29a.44.44,0,0,0-.37-.21H53a.44.44,0,1,0,0,.87h2.65L57.52,28a.44.44,0,0,0,.37.21h2.57a2.19,2.19,0,0,0,2.64,1.57,2.12,2.12,0,0,0,1.61-2.57,2.17,2.17,0,0,0-2.11-1.62Zm0,3.5a1.31,1.31,0,1,1,1.28-1.37s0,.08,0,.12A1.27,1.27,0,0,1,62.53,29.12Z" fill="#00abff"/></g><path id="fef49f26-c575-46a5-a93e-3afcd1bf1309" data-name="4fb46777-7537-4778-909e-1f4043184a7a" d="M50.65,11.25A9,9,0,0,0,39.94,6.1a12.59,12.59,0,0,0-23,6.11,9.05,9.05,0,0,0,4.89,16.62H47.59a9.07,9.07,0,0,0,3.06-17.59Z" fill="#3e4357"/><path id="bd7c7563-1b86-470b-8da3-e4eb63d57764" data-name="b654e7ca-81c4-4d3c-9ad6-7968561098d0" d="M47.59,29.37H21.82a9.6,9.6,0,0,1-5.41-17.49A13.13,13.13,0,0,1,40.18,5.51a9.49,9.49,0,0,1,10.88,5.35,9.59,9.59,0,0,1-3.47,18.51ZM29.5,1.09a12.15,12.15,0,0,0-12,11.16v.26l-.22.15a8.51,8.51,0,0,0,4.58,15.62H47.59A8.5,8.5,0,0,0,50.46,11.8l-.22-.07-.08-.22a8.32,8.32,0,0,0-10-4.84l-.37.11-.22-.32A12,12,0,0,0,29.5,1.09Z" fill="#00abff"/><g id="6212ced5-ef21-45a0-a062-00d4bbd7360e" data-name="e5e755eb-d7c0-44dd-9790-f3e3955c4d16"><path id="f923cb4e-d54c-4628-a079-7f0e52351c7e" data-name="9d56ddaa-32dd-4447-a8b9-889d4c66a654" d="M30.6,20.82a3.64,3.64,0,0,1-3.74-3.54h0a3.58,3.58,0,0,1,3.52-3.65h.21a3.83,3.83,0,0,1,2.76,1.15l.89-1a5.17,5.17,0,0,0-7.17-.12,4.88,4.88,0,0,0-1.55,3.51,5.06,5.06,0,0,0,5.05,5.08,5.2,5.2,0,0,0,3.94-1.69l-.85-1.16A3.72,3.72,0,0,1,30.6,20.82Z" fill="#00abff"/><path id="0b146f88-af8c-4ca1-ab97-1f025e323c1f" data-name="a3ce2120-0b2e-44e5-90c2-32a705e9201b" d="M39.66,16.25c-1.61,0-2-.52-2-1.1a1.82,1.82,0,0,1,2-1.56,4.07,4.07,0,0,1,2.94,1.12l.86-1a5.12,5.12,0,0,0-3.85-1.5,3.27,3.27,0,0,0-3.48,3c0,1.61,1.28,2.5,3.48,2.5,1.36,0,2.8,0,2.8,1.45,0,1.19-1.4,1.71-2.8,1.71a3.73,3.73,0,0,1-2.9-1.49l-1,.92a5,5,0,0,0,3.85,1.95c2.39,0,4.21-1.25,4.21-3.1S43,16.25,39.66,16.25Z" fill="#00abff"/><polygon id="becb3218-4166-467e-b0b1-daf0909fe0ef" data-name="b78a3094-2437-40f7-baef-961668631603" points="19.02 18.43 23.94 21.65 23.94 20 20.43 17.8 23.94 15.6 23.94 13.94 19.02 17.18 19.02 18.43" fill="#00abff"/><polygon id="f550944a-f786-4aff-ab67-d2326af42411" data-name="32562a4f-b8b9-4edc-9436-00f3074dabb3" points="45.77 13.94 45.77 15.6 49.27 17.8 45.77 20 45.77 21.65 50.69 18.43 50.69 17.18 45.77 13.94" fill="#00abff"/></g><g id="f01939c5-1636-4298-9478-65b395fbd9d1" data-name="64ff538a-288e-41f5-bfea-f3fd95e09bdf"><path id="930202d6-c0bf-43ec-873c-e7c0dd49431b" data-name="2068171a-9e59-429d-81be-e1ce2b64cc68" d="M88.3,19a.93.93,0,0,0-.49.29,6,6,0,0,1-4.52,2,5.9,5.9,0,0,1-2.4-.5,6.17,6.17,0,0,1-2-1.34,6.31,6.31,0,0,1-1.28-6.8,6.45,6.45,0,0,1,1.28-2,6.09,6.09,0,0,1,2-1.35,5.9,5.9,0,0,1,2.4-.52,5.25,5.25,0,0,1,2.47.6,10.56,10.56,0,0,1,2,1.34.78.78,0,0,0,.63.24.7.7,0,0,0,.57-.31.62.62,0,0,0,.08-.61,1.24,1.24,0,0,0-.28-.49A7.88,7.88,0,0,0,86.32,7.8a7.52,7.52,0,0,0-6,0A7.7,7.7,0,0,0,77.9,9.51a7.93,7.93,0,0,0,0,11,7.6,7.6,0,0,0,2.43,1.65,7.64,7.64,0,0,0,8.57-1.84.89.89,0,0,0,.22-.61.73.73,0,0,0-.27-.59A.63.63,0,0,0,88.3,19Z" fill="#00abff"/><path id="f3204fd9-3b2a-4731-a5c3-c18e1574de4a" data-name="fe912293-9f62-452a-92f2-8ca4c76dae1f" d="M94.21,21.25a2.43,2.43,0,0,1-1.28-.34,2.47,2.47,0,0,1-1.09-1.52,3,3,0,0,1-.06-.64V8a.73.73,0,0,0-.22-.47.75.75,0,0,0-1,0l0,0a.73.73,0,0,0-.22.52V18.75A4.23,4.23,0,0,0,90.48,20a3.93,3.93,0,0,0,.67,1.25,3.77,3.77,0,0,0,3.06,1.45.72.72,0,0,0,.53-.21.76.76,0,0,0,0-1.06A.72.72,0,0,0,94.21,21.25Z" fill="#00abff"/><path id="f85378f8-c7fb-4c23-9864-1c5f089479b7" data-name="15b8e443-5fb1-441c-9ef2-f56cf9cd4724" d="M104.57,12.79a6.09,6.09,0,0,0-1.84-1.25,5.25,5.25,0,0,0-2.2-.47,6.29,6.29,0,0,0-2.31.52,5.78,5.78,0,0,0-3.52,5.35,5.81,5.81,0,0,0,.4,2.29,5.66,5.66,0,0,0,3.08,3,5.77,5.77,0,0,0,2.25.44,5.65,5.65,0,0,0,2.38-.45A5.73,5.73,0,0,0,104.65,21a6.08,6.08,0,0,0,1.28-1.85,5.72,5.72,0,0,0,0-4.5A6.09,6.09,0,0,0,104.57,12.79Zm-.09,5.8a4.38,4.38,0,0,1-.92,1.37,4.31,4.31,0,0,1-1.37.92,4.23,4.23,0,0,1-1.68.34,4.14,4.14,0,0,1-1.67-.34,4.09,4.09,0,0,1-2.3-2.26,4.21,4.21,0,0,1-.33-1.67,4.34,4.34,0,0,1,1.26-3.07,4.34,4.34,0,0,1,1.36-.92,4.14,4.14,0,0,1,1.67-.34,4.23,4.23,0,0,1,1.68.34,4.31,4.31,0,0,1,1.37.92,4.34,4.34,0,0,1,1.26,3.07,4.23,4.23,0,0,1-.33,1.64Z" fill="#00abff"/><path id="38a551b9-3a82-4246-8dcc-406f190e4639" data-name="75791a49-de0c-45b7-abd8-7b0f8ba55ac8" d="M118.22,11a.72.72,0,0,0-.53.21.73.73,0,0,0-.22.52V16.9a4.21,4.21,0,0,1-.33,1.67,4.35,4.35,0,0,1-2.29,2.3,4.28,4.28,0,0,1-3.34,0,4,4,0,0,1-2.32-2.25,4.21,4.21,0,0,1-.33-1.67v-5.2a.73.73,0,0,0-.22-.5.75.75,0,0,0-1,0l0,0a.73.73,0,0,0-.22.52v5.16a5.84,5.84,0,0,0,3.53,5.36,5.77,5.77,0,0,0,4.51,0,5.84,5.84,0,0,0,3.53-5.36V11.75a.73.73,0,0,0-.22-.5A.71.71,0,0,0,118.22,11Z" fill="#00abff"/><path id="2187e1b3-8dc0-4848-9600-2bcbf6eb1c54" data-name="61e5d23a-0432-4a2e-aab9-e17c5f679320" d="M131.07,7.5a.75.75,0,0,0-1,0l0,0a.73.73,0,0,0-.22.52v5.26a7.91,7.91,0,0,0-1.9-1.51,5,5,0,0,0-4.64-.21,6.1,6.1,0,0,0-3.12,3.11,5.72,5.72,0,0,0,0,4.5A6.08,6.08,0,0,0,121.42,21a5.73,5.73,0,0,0,1.84,1.25,5.65,5.65,0,0,0,2.27.46,5.8,5.8,0,0,0,2.23-.44A5.73,5.73,0,0,0,129.61,21a5.63,5.63,0,0,0,1.28-1.84,5.81,5.81,0,0,0,.45-2.31V8A.73.73,0,0,0,131.07,7.5Zm-1.61,11.14a4.35,4.35,0,0,1-2.29,2.3,4.14,4.14,0,0,1-1.67.34,4.23,4.23,0,0,1-1.68-.34,4.3,4.3,0,0,1-1.35-.94,4.35,4.35,0,0,1-.92-1.37,4.2,4.2,0,0,1-.33-1.67,4.3,4.3,0,0,1,2.63-4,4.23,4.23,0,0,1,1.68-.34,4.13,4.13,0,0,1,1.63.32,4.17,4.17,0,0,1,1.28.9,4.47,4.47,0,0,1,.92,1.37,5,5,0,0,1,.4,1.74,4.21,4.21,0,0,1-.28,1.64Z" fill="#00abff"/></g><g id="0fa7aafa-5597-4802-bcc6-a9727b760bb1" data-name="96fbe0a7-0c09-4bdf-993e-b31d84d3f0b3"><path id="379f2377-3fbe-480d-b4ce-6834b98bfb56" data-name="96e52468-be26-4db2-ae97-225f8a96dd9b" d="M147.12,14.89a6.37,6.37,0,0,0-1.7-1,7.65,7.65,0,0,0-2.08-.52,7,7,0,0,1-1.18-.26,6.52,6.52,0,0,1-1.17-.49,3.3,3.3,0,0,1-.9-.69,1.23,1.23,0,0,1-.36-.87,1.63,1.63,0,0,1,.32-.92,2.64,2.64,0,0,1,.77-.75,4,4,0,0,1,1.14-.5,5.27,5.27,0,0,1,1.39-.12,5.06,5.06,0,0,1,1.36.17,4.22,4.22,0,0,1,1.14.5,2.81,2.81,0,0,1,.78.71A1.55,1.55,0,0,1,147,11a1,1,0,0,0,.23.61.66.66,0,0,0,.51.22.72.72,0,0,0,.53-.21.73.73,0,0,0,.22-.52,2.93,2.93,0,0,0-.4-1.49A4,4,0,0,0,147,8.34a5.61,5.61,0,0,0-1.62-.84,6.59,6.59,0,0,0-4,0,5.61,5.61,0,0,0-1.62.82,4,4,0,0,0-1.09,1.25,2.93,2.93,0,0,0-.4,1.49,2.67,2.67,0,0,0,.42,1.46,4.11,4.11,0,0,0,1.12,1.16,6.23,6.23,0,0,0,1.62.81,7.69,7.69,0,0,0,1.93.39,6.56,6.56,0,0,1,1.43.4,4.85,4.85,0,0,1,1.21.7,3.78,3.78,0,0,1,.86,1,2.56,2.56,0,0,1,.39,1.17,2.32,2.32,0,0,1-.27,1.25,3.13,3.13,0,0,1-.87,1,4.49,4.49,0,0,1-1.28.69,4.88,4.88,0,0,1-1.58.25,4.78,4.78,0,0,1-1.57-.25,4.2,4.2,0,0,1-1.28-.69,3.24,3.24,0,0,1-.85-1,2.68,2.68,0,0,1-.31-1.25.68.68,0,0,0-.21-.5.69.69,0,0,0-1,0l0,0a.68.68,0,0,0-.21.5,4,4,0,0,0,.42,1.81,4.7,4.7,0,0,0,1.17,1.49,5.57,5.57,0,0,0,1.72,1,6.07,6.07,0,0,0,2.11.36A5.93,5.93,0,0,0,147,21.41a4.54,4.54,0,0,0,1.17-1.49,4.08,4.08,0,0,0,.42-1.82,3.84,3.84,0,0,0-.41-1.75A4.43,4.43,0,0,0,147.12,14.89Z" fill="#c5cbe6"/><path id="27e56003-b86b-47af-b909-76d03037606e" data-name="710cb7ae-70b8-40a5-bc6f-ea7575b89696" d="M158.94,19.82a.72.72,0,0,0-.53.21,4.46,4.46,0,0,1-1.36.9,4.19,4.19,0,0,1-1.66.32,4.13,4.13,0,0,1-1.67-.34,4.35,4.35,0,0,1-2.29-2.3,4.21,4.21,0,0,1-.33-1.67,4.33,4.33,0,0,1,2.62-4,4.14,4.14,0,0,1,1.67-.34,4.21,4.21,0,0,1,1.66.32,5,5,0,0,1,1.36.86.75.75,0,0,0,1,0l0,0a.54.54,0,0,0,.15-.59,1,1,0,0,0-.26-.45l-.63-.51a6.13,6.13,0,0,0-.87-.54,6.33,6.33,0,0,0-1.12-.46,4.68,4.68,0,0,0-1.28-.17,6.28,6.28,0,0,0-2.31.51,5.91,5.91,0,0,0-3.07,7.66,5.66,5.66,0,0,0,3.08,3,6,6,0,0,0,3.62.27,6.24,6.24,0,0,0,1.16-.4,5.09,5.09,0,0,0,.89-.52,5.35,5.35,0,0,0,.59-.5.86.86,0,0,0,.27-.59.7.7,0,0,0-.21-.54A.72.72,0,0,0,158.94,19.82Z" fill="#c5cbe6"/><path id="12fc8b11-2bcf-4fb5-853b-bb1abf23a5d5" data-name="6296467b-9a48-4b8e-a64d-7c569ef3adbf" d="M166.5,11a5.66,5.66,0,0,0-2.21.49,5.82,5.82,0,0,0-1.81,1.25,5.89,5.89,0,0,0-1.28,1.85,5.68,5.68,0,0,0-.45,2.24V22a.73.73,0,0,0,.22.52.75.75,0,0,0,1,0l0,0a.73.73,0,0,0,.22-.52V16.81a4.28,4.28,0,0,1,.32-1.65,4.18,4.18,0,0,1,.9-1.36,4.5,4.5,0,0,1,1.28-.92,4.18,4.18,0,0,1,1.63-.37.85.85,0,0,0,.62-.21.74.74,0,0,0,0-1.06h0A.84.84,0,0,0,166.5,11Z" fill="#c5cbe6"/><path id="831cdb9a-6645-423d-badd-a8feb61bd9b8" data-name="fb163f70-c7e0-4dc7-9abb-26639ec879b5" d="M168.77,11a.71.71,0,0,0-.46.25.73.73,0,0,0-.22.52V22a.73.73,0,0,0,.22.49.75.75,0,0,0,1,0l0,0a.73.73,0,0,0,.22-.52V11.75a.73.73,0,0,0-.22-.52A.72.72,0,0,0,168.77,11Z" fill="#c5cbe6"/><path id="0de4b137-3d02-4094-bedd-567683ab9b5c" data-name="56d37d69-f1d9-42d7-b531-ef0ce60a971d" d="M168.77,7.42a1,1,0,0,0-.69.29,1,1,0,0,0,0,1.4,1,1,0,0,0,1.36,0l0,0a1,1,0,0,0,0-1.4A.94.94,0,0,0,168.77,7.42Z" fill="#c5cbe6"/><path id="9da6544e-8cb7-4033-9558-704d7a43019d" data-name="7c4ad9c1-bf3c-4c1e-9a15-67a763e74554" d="M180.7,12.79a5.74,5.74,0,0,0-1.84-1.25,5.66,5.66,0,0,0-2.27-.46,5.78,5.78,0,0,0-2.25.44,5.68,5.68,0,0,0-3.08,3,5.81,5.81,0,0,0-.45,2.31v9.49a.73.73,0,0,0,.22.52.75.75,0,0,0,1,0l0,0a.73.73,0,0,0,.22-.52V20.52A7.87,7.87,0,0,0,174.2,22a5.16,5.16,0,0,0,2.44.69,5.25,5.25,0,0,0,2.2-.47A6.1,6.1,0,0,0,182,19.14a5.72,5.72,0,0,0,0-4.5A6.08,6.08,0,0,0,180.7,12.79Zm-.13,5.76a4.28,4.28,0,0,1-2.3,2.31,4.23,4.23,0,0,1-1.68.34A3.93,3.93,0,0,1,173.67,20a4.64,4.64,0,0,1-.94-1.37,4.45,4.45,0,0,1-.39-1.74,4.21,4.21,0,0,1,.33-1.67,4.35,4.35,0,0,1,2.29-2.3,4.15,4.15,0,0,1,1.67-.34,4.25,4.25,0,0,1,1.68.34,4.32,4.32,0,0,1,1.37.92,4.38,4.38,0,0,1,.92,1.37,4.22,4.22,0,0,1,.33,1.67,4.31,4.31,0,0,1-.39,1.69Z" fill="#c5cbe6"/><path id="e6a3a8bb-9089-46b8-aa1e-2359d3e8c9ba" data-name="698e5a51-b5e5-4e26-a922-d78286fcfada" d="M193,19.9a.77.77,0,0,0-.57-.16A.75.75,0,0,0,192,20a4.19,4.19,0,0,1-4.61.89,4.35,4.35,0,0,1-2.29-2.3,4.21,4.21,0,0,1-.33-1.67V12.5H190a.85.85,0,0,0,.62-.21.74.74,0,0,0,0-1.06h0A.85.85,0,0,0,190,11h-5.3V8a.73.73,0,0,0-.22-.52.75.75,0,0,0-1,0l0,0a.73.73,0,0,0-.22.52V16.9a5.84,5.84,0,0,0,3.53,5.36,5.59,5.59,0,0,0,2.26.46,5.67,5.67,0,0,0,4.17-1.79.77.77,0,0,0,.12-.55A.87.87,0,0,0,193,19.9Z" fill="#c5cbe6"/><path id="7802e024-672b-4150-ad98-6f2cdcf533b4" data-name="ffbaf70d-36c7-4768-8ba2-c68b930e18e6" d="M194.8,7.42a1,1,0,0,0-.69.29,1,1,0,0,0,0,1.4,1,1,0,0,0,1.36,0l0,0a1,1,0,0,0,0-1.4A.94.94,0,0,0,194.8,7.42Z" fill="#c5cbe6"/><path id="d0034130-cdf8-4836-8838-752845ccae61" data-name="de3742ac-2245-40af-9076-ff67fc9b4554" d="M194.8,11a.72.72,0,0,0-.53.21.73.73,0,0,0-.22.52V22a.73.73,0,0,0,.22.52.75.75,0,0,0,1,0l0,0a.73.73,0,0,0,.22-.52V11.75a.73.73,0,0,0-.27-.5A.71.71,0,0,0,194.8,11Z" fill="#c5cbe6"/><path id="87b93d9f-c595-43ba-89a4-f7f16b4d00e0" data-name="ae69e459-e057-458b-a079-55fc752e0ac1" d="M206.65,12.7a5.85,5.85,0,0,0-1.84-1.25,5.77,5.77,0,0,0-4.51,0,6.14,6.14,0,0,0-3.12,3.1,5.69,5.69,0,0,0-.45,2.26V22a.73.73,0,0,0,.22.52.75.75,0,0,0,1,0l0,0a.73.73,0,0,0,.22-.52V16.81a4.21,4.21,0,0,1,.33-1.67,4.35,4.35,0,0,1,2.29-2.3,4.28,4.28,0,0,1,3.34,0,4.27,4.27,0,0,1,2.29,2.29,4.21,4.21,0,0,1,.33,1.67V22a.73.73,0,0,0,.22.52.75.75,0,0,0,1,0l0,0a.73.73,0,0,0,.22-.52V16.81a5.7,5.7,0,0,0-.45-2.26A5.89,5.89,0,0,0,206.65,12.7Z" fill="#c5cbe6"/><path id="2b7c12c5-757f-4a73-90a2-dd73d2f1e44b" data-name="59071447-8df3-454c-83f1-767ba8032f56" d="M219.8,20.31a5.62,5.62,0,0,0,.85-1.6,5.68,5.68,0,0,0,.3-1.85,5.57,5.57,0,0,0-.46-2.26,6.1,6.1,0,0,0-3.12-3.11,5.25,5.25,0,0,0-2.2-.47,6.29,6.29,0,0,0-2.31.52,5.91,5.91,0,0,0-3.07,7.66,5.66,5.66,0,0,0,3.08,3,5.77,5.77,0,0,0,2.25.44,5.62,5.62,0,0,0,2-.34,6.18,6.18,0,0,0,1.68-.94,2.34,2.34,0,0,1,.51.79,2.5,2.5,0,0,1-.53,2.7,2.47,2.47,0,0,1-.8.52,2.43,2.43,0,0,1-1,.19h-3.17a2.62,2.62,0,0,0-1.52.45,2.82,2.82,0,0,0-1,1.15.78.78,0,0,0,0,.55.7.7,0,0,0,.35.44.79.79,0,0,0,.58,0,.74.74,0,0,0,.44-.36,1.6,1.6,0,0,1,.55-.52,1.53,1.53,0,0,1,.64-.24H217a3.81,3.81,0,0,0,1.54-.31,3.86,3.86,0,0,0,1.28-.86,4.21,4.21,0,0,0,.83-1.25,3.93,3.93,0,0,0,0-3.06A4.06,4.06,0,0,0,219.8,20.31Zm-.67-1.77a4.38,4.38,0,0,1-.92,1.37,4.29,4.29,0,0,1-1.37.92,4.22,4.22,0,0,1-1.68.34,4.14,4.14,0,0,1-1.67-.34,4.35,4.35,0,0,1-2.29-2.3,4.21,4.21,0,0,1-.33-1.67,4.34,4.34,0,0,1,1.26-3.07,4.36,4.36,0,0,1,1.36-.92,4.15,4.15,0,0,1,1.67-.34,4.25,4.25,0,0,1,1.68.34,4.32,4.32,0,0,1,2.63,4A4.21,4.21,0,0,1,219.14,18.54Z" fill="#c5cbe6"/></g></svg>