<?xml version="1.0" encoding="UTF-8" standalone="no"?>
<svg
   xmlns:dc="http://purl.org/dc/elements/1.1/"
   xmlns:cc="http://creativecommons.org/ns#"
   xmlns:rdf="http://www.w3.org/1999/02/22-rdf-syntax-ns#"
   xmlns:svg="http://www.w3.org/2000/svg"
   xmlns="http://www.w3.org/2000/svg"
   xmlns:sodipodi="http://sodipodi.sourceforge.net/DTD/sodipodi-0.dtd"
   xmlns:inkscape="http://www.inkscape.org/namespaces/inkscape"
   id="72484d24-06e9-4347-82cd-a2a5ebde99de"
   data-name="Слой 1"
   width="171.99997"
   height="23.21669"
   viewBox="0 0 171.99997 23.216691"
   version="1.1"
   sodipodi:docname="cloudscripting1.svg"
   inkscape:version="0.92.4 (unknown)">
  <metadata
     id="metadata73">
    <rdf:RDF>
      <cc:Work
         rdf:about="">
        <dc:format>image/svg+xml</dc:format>
        <dc:type
           rdf:resource="http://purl.org/dc/dcmitype/StillImage" />
        <dc:title>cs2</dc:title>
      </cc:Work>
    </rdf:RDF>
  </metadata>
  <defs
     id="defs71" />
  <sodipodi:namedview
     pagecolor="#ffffff"
     bordercolor="#666666"
     borderopacity="1"
     objecttolerance="10"
     gridtolerance="10"
     guidetolerance="10"
     inkscape:pageopacity="0"
     inkscape:pageshadow="2"
     inkscape:window-width="1853"
     inkscape:window-height="1022"
     id="namedview69"
     showgrid="false"
     inkscape:zoom="0.75560081"
     inkscape:cx="-1.9851752"
     inkscape:cy="33.135002"
     inkscape:window-x="1987"
     inkscape:window-y="30"
     inkscape:window-maximized="1"
     inkscape:current-layer="72484d24-06e9-4347-82cd-a2a5ebde99de" />
  <title
     id="title2">cs2</title>
  <path
     d="m 12.963087,18.476404 h -2.242264 a 0.35035371,0.35035371 0 0 0 -0.290793,0.16817 L 8.9480336,21.184639 H 6.6567204 v 0.676182 H 9.126714 a 0.35035371,0.35035371 0 0 0 0.2907936,-0.16817 l 1.4819964,-2.540064 h 2.063583 a 0.35035371,0.35035371 0 1 0 0,-0.676183 z"
     id="path4"
     inkscape:connector-curvature="0"
     style="fill:#00abff;stroke-width:0.35035372" />
  <path
     d="M 15.913065,13.963849 H 8.1106883 L 5.7107654,12.436306 A 0.35035371,0.35035371 0 0 0 5.5285815,12.383753 H 3.0130419 v 0.676183 h 2.4174405 l 2.3999229,1.527542 a 0.35035371,0.35035371 0 0 0 0.1821839,0.05255 h 7.9004758 a 0.35035371,0.35035371 0 0 0 0,-0.676182 z"
     id="path6"
     inkscape:connector-curvature="0"
     style="fill:#00abff;stroke-width:0.35035372" />
  <path
     d="M 19.749438,8.0954243 H 12.707329 L 11.001106,5.5378423 A 0.35035371,0.35035371 0 0 0 10.720823,5.3871903 H 7.7953699 v 0.676183 h 2.7432691 l 1.723741,2.557582 a 0.35035371,0.35035371 0 0 0 0.280283,0.150652 h 7.206775 a 0.35035371,0.35035371 0 0 0 0,-0.676183 z"
     id="path8"
     inkscape:connector-curvature="0"
     style="fill:#00abff;stroke-width:0.35035372" />
  <path
     d="m 47.196148,21.184639 h -1.975995 l -1.481996,-2.540065 a 0.35035371,0.35035371 0 0 0 -0.290794,-0.16817 h -2.256278 a 0.35035371,0.35035371 0 1 0 0,0.676183 h 2.063583 l 1.481997,2.540064 a 0.35035371,0.35035371 0 0 0 0.290793,0.16817 h 2.16869 z"
     id="path10"
     inkscape:connector-curvature="0"
     style="fill:#00abff;stroke-width:0.35035372" />
  <path
     d="m 51.151641,12.383753 h -2.498022 a 0.35035371,0.35035371 0 0 0 -0.182184,0.05255 l -2.399923,1.527543 h -7.812887 a 0.35035371,0.35035371 0 0 0 0,0.676182 h 7.900476 a 0.35035371,0.35035371 0 0 0 0.182184,-0.05255 l 2.399922,-1.527542 h 2.410434 z"
     id="path12"
     inkscape:connector-curvature="0"
     style="fill:#00abff;stroke-width:0.35035372" />
  <path
     d="m 46.351795,5.3871903 h -2.907936 a 0.35035371,0.35035371 0 0 0 -0.280283,0.150652 l -1.706222,2.557582 h -7.038606 a 0.35035371,0.35035371 0 0 0 0,0.676183 h 7.224293 a 0.35035371,0.35035371 0 0 0 0.280283,-0.150652 l 1.706223,-2.557582 h 2.722248 z"
     id="path14"
     inkscape:connector-curvature="0"
     style="fill:#00abff;stroke-width:0.35035372" />
  <path
     d="m 47.511466,7.4192413 a 1.6922084,1.6922084 0 1 1 1.692208,-1.692208 1.6957119,1.6957119 0 0 1 -1.692208,1.692208 z m 0,-2.708234 a 1.0160257,1.0160257 0 1 0 1.016026,1.016026 1.0160257,1.0160257 0 0 0 -1.016026,-1.016026 z"
     id="path16"
     inkscape:connector-curvature="0"
     style="fill:#00abff;stroke-width:0.35035372" />
  <path
     d="m 52.475978,14.415805 a 1.6922084,1.6922084 0 1 1 1.692208,-1.692208 1.6957119,1.6957119 0 0 1 -1.692208,1.692208 z m 0,-2.708234 a 1.0160257,1.0160257 0 1 0 1.016026,1.016026 1.0160257,1.0160257 0 0 0 -1.016026,-1.016026 z"
     id="path18"
     inkscape:connector-curvature="0"
     style="fill:#00abff;stroke-width:0.35035372" />
  <path
     d="m 48.639605,23.21669 a 1.6922084,1.6922084 0 1 1 1.692208,-1.692208 1.6957119,1.6957119 0 0 1 -1.692208,1.692208 z m 0,-2.708234 a 1.0160257,1.0160257 0 1 0 1.016026,1.016026 1.0160257,1.0160257 0 0 0 -1.016026,-1.016026 z"
     id="path20"
     inkscape:connector-curvature="0"
     style="fill:#00abff;stroke-width:0.35035372" />
  <path
     d="m 6.6567204,7.4192413 a 1.6922084,1.6922084 0 1 1 1.6922084,-1.692208 1.6957119,1.6957119 0 0 1 -1.6922084,1.692208 z m 0,-2.708234 a 1.0160257,1.0160257 0 1 0 1.0160257,1.016026 1.0160257,1.0160257 0 0 0 -1.0160257,-1.016026 z"
     id="path22"
     inkscape:connector-curvature="0"
     style="fill:#00abff;stroke-width:0.35035372" />
  <path
     d="m 1.6922084,14.415805 a 1.6922084,1.6922084 0 1 1 1.6922084,-1.692208 1.6957119,1.6957119 0 0 1 -1.6922084,1.692208 z m 0,-2.708234 a 1.0160257,1.0160257 0 1 0 1.0160257,1.016026 1.0160257,1.0160257 0 0 0 -1.0160257,-1.016026 z"
     id="path24"
     inkscape:connector-curvature="0"
     style="fill:#00abff;stroke-width:0.35035372" />
  <path
     d="M 5.5285815,23.21669 A 1.6922084,1.6922084 0 1 1 7.2207899,21.524482 1.6957119,1.6957119 0 0 1 5.5285815,23.21669 Z m 0,-2.708234 a 1.0160257,1.0160257 0 1 0 1.0160257,1.016026 1.0160257,1.0160257 0 0 0 -1.0160257,-1.016026 z"
     id="path26"
     inkscape:connector-curvature="0"
     style="fill:#00abff;stroke-width:0.35035372" />
  <path
     d="M 39.390267,8.7330683 A 7.0070741,7.0070741 0 0 0 31.048345,4.7495463 9.8099037,9.8099037 0 0 0 13.12425,9.4583003 7.0070741,7.0070741 0 0 0 16.929091,22.312777 H 37.018372 A 7.0070741,7.0070741 0 0 0 39.393771,8.7330683 Z"
     id="path28"
     inkscape:connector-curvature="0"
     style="fill:#3e4357;stroke-width:0.35035372" />
  <path
     d="M 37.014869,22.736705 H 16.929091 A 7.4169879,7.4169879 0 0 1 12.724847,9.2060453 10.240839,10.240839 0 0 1 31.230529,4.2660583 7.4169879,7.4169879 0 0 1 39.705585,8.4072393 7.4204915,7.4204915 0 0 1 37.018372,22.743712 Z M 22.909629,0.84310231 A 9.4385288,9.4385288 0 0 0 13.544674,9.4793213 v 0.206709 l -0.175177,0.112113 A 6.5726355,6.5726355 0 0 0 16.943105,21.892353 H 37.032387 A 6.576139,6.576139 0 0 0 39.239615,9.1324713 l -0.171673,-0.06306 -0.07358,-0.168169 a 6.576139,6.576139 0 0 0 -7.830405,-3.748785 l -0.294297,0.08409 -0.171673,-0.252255 A 9.3929828,9.3929828 0 0 0 22.909624,0.84311131 Z"
     id="path30"
     inkscape:connector-curvature="0"
     style="fill:#00abff;stroke-width:0.35035372" />
  <path
     d="m 25.926174,11.430791 a 2.9885171,2.9885171 0 0 0 -2.147668,-0.886395 2.7818084,2.7818084 0 0 0 -2.897425,2.827355 2.8273544,2.8273544 0 0 0 2.893921,2.743269 2.8974251,2.8974251 0 0 0 2.333356,-1.152663 l 0.658665,0.896905 a 4.018557,4.018557 0 0 1 -3.006035,1.331344 3.8994367,3.8994367 0 0 1 -3.944982,-3.948486 c 0,-2.168689 1.853371,-3.7838197 3.958996,-3.7838197 a 3.9905287,3.9905287 0 0 1 2.827355,1.1631737 z"
     id="path32"
     inkscape:connector-curvature="0"
     style="fill:#00abff;stroke-width:0.35035372" />
  <path
     d="m 30.778573,17.19411 a 3.8994367,3.8994367 0 0 1 -3.023552,-1.506521 l 0.767274,-0.718225 a 2.9009287,2.9009287 0 0 0 2.256278,1.145656 c 1.082593,0 2.175696,-0.413417 2.175696,-1.331344 0,-1.121132 -1.110621,-1.121132 -2.175696,-1.121132 -1.751769,0 -2.708234,-0.651657 -2.708234,-1.90242 0,-1.191203 1.131642,-2.3053277 2.708234,-2.3053277 a 4.0045428,4.0045428 0 0 1 2.956985,1.1631747 l -0.669175,0.788296 a 3.1777081,3.1777081 0 0 0 -2.284306,-0.865374 c -0.826835,0 -1.517032,0.571076 -1.517032,1.212224 0,0.444949 0.315318,0.847856 1.566081,0.847856 2.571596,0 3.230261,0.798806 3.230261,2.186207 -0.0035,1.478492 -1.422436,2.40693 -3.282814,2.40693 z"
     id="path34"
     inkscape:connector-curvature="0"
     style="fill:#00abff;stroke-width:0.35035372" />
  <path
     d="M 14.753395,14.254642 V 13.29117 l 3.815351,-2.501526 v 1.282295 l -2.729255,1.702719 2.729255,1.702719 v 1.278791 z"
     id="path36"
     inkscape:connector-curvature="0"
     style="fill:#00abff;stroke-width:0.35035372" />
  <path
     d="m 35.585426,16.759671 v -1.282294 l 2.729255,-1.702719 -2.729255,-1.702719 v -1.282295 l 3.832869,2.501526 v 0.966976 z"
     id="path38"
     inkscape:connector-curvature="0"
     style="fill:#00abff;stroke-width:0.35035372" />
  <path
     d="m 60.029604,11.591954 a 4.7192644,4.7192644 0 0 0 0.374878,1.867385 4.87342,4.87342 0 0 0 1.01953,1.531046 4.8103564,4.8103564 0 0 0 1.520535,1.051061 4.6176618,4.6176618 0 0 0 1.870888,0.371375 4.7613069,4.7613069 0 0 0 1.951471,-0.402907 4.6632078,4.6632078 0 0 0 1.552066,-1.110621 0.72172863,0.72172863 0 0 1 0.381886,-0.224226 0.49750226,0.49750226 0 0 1 0.420424,0.07357 0.56056593,0.56056593 0 0 1 0.206709,0.458963 0.70070741,0.70070741 0 0 1 -0.16817,0.476481 5.766822,5.766822 0 0 1 -1.940959,1.401415 5.8929493,5.8929493 0 0 1 -2.403427,0.483488 5.7878432,5.7878432 0 0 1 -2.315838,-0.46597 5.9209776,5.9209776 0 0 1 -1.888406,-1.278791 6.0751332,6.0751332 0 0 1 -1.26828,-1.905924 6.0225802,6.0225802 0 0 1 0,-4.6491937 6.001559,6.001559 0 0 1 3.153183,-3.195226 5.8859422,5.8859422 0 0 1 4.659704,0 6.1381969,6.1381969 0 0 1 1.912931,1.324337 0.93544439,0.93544439 0 0 1 0.224227,0.374879 0.48348811,0.48348811 0 0 1 -0.05606,0.430935 0.53954471,0.53954471 0 0 1 -0.437942,0.241744 0.61311898,0.61311898 0 0 1 -0.479985,-0.178681 8.226305,8.226305 0 0 0 -1.569584,-1.051061 4.1061454,4.1061454 0 0 0 -1.933953,-0.462467 4.6176618,4.6176618 0 0 0 -1.867385,0.381886 4.7437892,4.7437892 0 0 0 -1.520535,1.051061 4.9960438,4.9960438 0 0 0 -1.019529,1.541556 4.7192644,4.7192644 0 0 0 -0.378382,1.8638817 z"
     id="path40"
     inkscape:connector-curvature="0"
     style="fill:#00abff;stroke-width:0.35035372" />
  <path
     d="m 73.889596,17.008422 a 0.57458008,0.57458008 0 0 1 -0.578083,0.578084 3.0971268,3.0971268 0 0 1 -1.43645,-0.350354 3.0200489,3.0200489 0 0 1 -1.453968,-1.758775 3.2547859,3.2547859 0 0 1 -0.157659,-0.935445 V 6.1754863 a 0.57983538,0.57983538 0 1 1 1.15967,0 v 8.3664457 a 2.2913132,2.2913132 0 0 0 0.06657,0.448453 1.8743923,1.8743923 0 0 0 0.269772,0.616623 1.8113287,1.8113287 0 0 0 1.569584,0.823331 0.57458008,0.57458008 0 0 1 0.578084,0.578083 z"
     id="path42"
     inkscape:connector-curvature="0"
     style="fill:#00abff;stroke-width:0.35035372" />
  <path
     d="m 78.240989,8.5473803 a 4.1306702,4.1306702 0 0 1 1.709726,0.350354 4.7122573,4.7122573 0 0 1 2.410434,2.4174407 4.396939,4.396939 0 0 1 0,3.482515 4.7017467,4.7017467 0 0 1 -0.963473,1.429444 4.4564991,4.4564991 0 0 1 -3.202233,1.324337 4.5125557,4.5125557 0 0 1 -3.174204,-1.271784 4.3584001,4.3584001 0 0 1 -0.97048,-1.418933 4.4705133,4.4705133 0 0 1 -0.350354,-1.793811 4.4389814,4.4389814 0 0 1 1.299813,-3.1531827 4.6526972,4.6526972 0 0 1 1.43645,-0.97048 4.9049519,4.9049519 0 0 1 1.804321,-0.3959 z m -3.380913,4.5545987 a 3.2442753,3.2442753 0 0 0 0.262765,1.296308 3.3774097,3.3774097 0 0 0 1.783301,1.783301 3.2442753,3.2442753 0 0 0 1.296309,0.262765 3.3108425,3.3108425 0 0 0 1.306819,-0.262765 3.352885,3.352885 0 0 0 1.072082,-0.73224 3.3914239,3.3914239 0 0 0 0.718225,-1.051061 3.2512824,3.2512824 0 0 0 0.262766,-1.296308 3.3178496,3.3178496 0 0 0 -0.262766,-1.30682 3.3283602,3.3283602 0 0 0 -1.793811,-1.793811 3.3108425,3.3108425 0 0 0 -1.306819,-0.2627647 3.2442753,3.2442753 0 0 0 -1.296309,0.2627647 3.3563885,3.3563885 0 0 0 -1.7833,1.793811 3.3108425,3.3108425 0 0 0 -0.259262,1.292805 z"
     id="path44"
     inkscape:connector-curvature="0"
     style="fill:#00abff;stroke-width:0.35035372" />
  <path
     d="m 83.566366,9.0904293 a 0.57808361,0.57808361 0 1 1 1.156167,0 v 3.9975347 a 3.2442753,3.2442753 0 0 0 0.262765,1.296309 3.3739062,3.3739062 0 0 0 1.783301,1.7833 3.352885,3.352885 0 0 0 2.596121,0 3.3774097,3.3774097 0 0 0 1.7833,-1.7833 3.2442753,3.2442753 0 0 0 0.262765,-1.296309 V 9.0904293 a 0.57808361,0.57808361 0 1 1 1.156167,0 v 3.9975347 a 4.3829249,4.3829249 0 0 1 -0.350353,1.751769 4.495038,4.495038 0 0 1 -2.389413,2.389412 4.5195628,4.5195628 0 0 1 -3.503537,0 4.495038,4.495038 0 0 1 -2.389412,-2.389412 4.3794213,4.3794213 0 0 1 -0.350354,-1.751769 z"
     id="path46"
     inkscape:connector-curvature="0"
     style="fill:#00abff;stroke-width:0.35035372" />
  <path
     d="m 97.668102,8.5473803 a 4.0500888,4.0500888 0 0 1 1.905925,0.532538 6.1592181,6.1592181 0 0 1 1.474993,1.1666777 V 6.1754863 a 0.57808361,0.57808361 0 1 1 1.15616,0 v 6.9124777 a 4.4775204,4.4775204 0 0 1 -0.35035,1.793811 4.3584001,4.3584001 0 0 1 -0.97048,1.418933 4.4740168,4.4740168 0 0 1 -1.436451,0.935444 4.5545982,4.5545982 0 0 1 -1.751768,0.350354 4.4564991,4.4564991 0 0 1 -3.202233,-1.324337 4.6947396,4.6947396 0 0 1 -0.949459,-1.446961 4.4004425,4.4004425 0 0 1 0,-3.482516 4.7087538,4.7087538 0 0 1 2.410434,-2.4174397 4.1306702,4.1306702 0 0 1 1.713229,-0.367872 z m 3.380918,4.5545987 a 3.8153518,3.8153518 0 0 0 -0.30832,-1.345359 3.4544875,3.4544875 0 0 0 -0.71822,-1.051061 3.261793,3.261793 0 0 0 -2.315839,-0.9529617 3.3108425,3.3108425 0 0 0 -1.306819,0.2627647 3.3283602,3.3283602 0 0 0 -1.804322,1.76228 3.3038354,3.3038354 0 0 0 -0.262765,1.306819 3.2372682,3.2372682 0 0 0 0.262765,1.296309 3.352885,3.352885 0 0 0 1.793811,1.7833 3.3108425,3.3108425 0 0 0 1.30682,0.262765 3.2442753,3.2442753 0 0 0 1.296308,-0.262765 3.3739062,3.3739062 0 0 0 1.783301,-1.7833 3.2442753,3.2442753 0 0 0 0.27328,-1.292806 z"
     id="path48"
     inkscape:connector-curvature="0"
     style="fill:#00abff;stroke-width:0.35035372" />
  <path
     d="m 114.38348,8.4527853 a 1.1947061,1.1947061 0 0 0 -0.24175,-0.644651 2.1792,2.1792 0 0 0 -0.60611,-0.550055 3.3003319,3.3003319 0 0 0 -0.88639,-0.381886 3.9589969,3.9589969 0 0 0 -1.05106,-0.140141 4.1341737,4.1341737 0 0 0 -1.09311,0.140141 3.1321621,3.1321621 0 0 0 -0.88639,0.381886 2.0460656,2.0460656 0 0 0 -0.59911,0.578083 1.2612733,1.2612733 0 0 0 -0.22422,0.700708 0.99150099,0.99150099 0 0 0 0.28028,0.683189 2.5645891,2.5645891 0 0 0 0.70071,0.532538 5.0976464,5.0976464 0 0 0 0.90741,0.3748787 5.5180709,5.5180709 0 0 0 0.91443,0.206708 5.9945519,5.9945519 0 0 1 1.61513,0.402907 4.9680155,4.9680155 0 0 1 1.31733,0.774282 3.4474805,3.4474805 0 0 1 0.86187,1.10011 2.9499782,2.9499782 0 0 1 0.31882,1.355869 3.1531833,3.1531833 0 0 1 -0.32583,1.401415 3.5035371,3.5035371 0 0 1 -0.90742,1.14916 4.6456901,4.6456901 0 0 1 -2.98851,1.051061 4.7472927,4.7472927 0 0 1 -1.64316,-0.280283 4.3373789,4.3373789 0 0 1 -1.34536,-0.774281 3.640175,3.640175 0 0 1 -0.90742,-1.149161 3.0866161,3.0866161 0 0 1 -0.32583,-1.401414 0.54304824,0.54304824 0 0 1 1.0826,0 2.0600798,2.0600798 0 0 0 0.24174,0.98099 2.5190431,2.5190431 0 0 0 0.66567,0.819828 3.2758071,3.2758071 0 0 0 0.988,0.532537 3.738274,3.738274 0 0 0 1.22273,0.196198 3.8223589,3.8223589 0 0 0 1.23325,-0.196198 3.5035371,3.5035371 0 0 0 1.01953,-0.532537 2.4279512,2.4279512 0 0 0 0.68319,-0.795303 1.7833004,1.7833004 0 0 0 0.20671,-0.980991 1.9759949,1.9759949 0 0 0 -0.2978,-0.907416 2.9429711,2.9429711 0 0 0 -0.67268,-0.746253 3.7803165,3.7803165 0 0 0 -0.94245,-0.543048 5.1642136,5.1642136 0 0 0 -1.11062,-0.308312 6.0260837,6.0260837 0 0 1 -1.50302,-0.2978 4.8559024,4.8559024 0 0 1 -1.26128,-0.627133 3.1917223,3.1917223 0 0 1 -0.86887,-0.8969057 2.0600798,2.0600798 0 0 1 -0.32583,-1.131642 2.2562779,2.2562779 0 0 1 0.30831,-1.14916 3.0971268,3.0971268 0 0 1 0.85136,-0.935445 4.3794213,4.3794213 0 0 1 1.26127,-0.63414 5.2027525,5.2027525 0 0 1 3.08311,0 4.3794213,4.3794213 0 0 1 1.26128,0.63414 3.0971268,3.0971268 0 0 1 0.85136,0.935445 2.2562779,2.2562779 0 0 1 0.30831,1.14916 0.57458008,0.57458008 0 0 1 -0.5921,0.578083 0.51501995,0.51501995 0 0 1 -0.40291,-0.17868 0.76377108,0.76377108 0 0 1 -0.17517,-0.476481 z"
     id="path50"
     inkscape:connector-curvature="0"
     style="fill:#c5cbe6;stroke-width:0.35035372" />
  <path
     d="m 123.3245,10.677531 a 3.8924297,3.8924297 0 0 0 -1.05106,-0.662169 3.2898213,3.2898213 0 0 0 -1.2893,-0.2522537 3.2407718,3.2407718 0 0 0 -1.29631,0.2627647 3.352885,3.352885 0 0 0 -1.7833,1.793811 3.314346,3.314346 0 0 0 -0.26276,1.306819 3.2442753,3.2442753 0 0 0 0.26276,1.299813 3.3774097,3.3774097 0 0 0 1.7833,1.7833 3.2337647,3.2337647 0 0 0 1.29631,0.262765 3.2828142,3.2828142 0 0 0 1.2893,-0.252254 3.4755088,3.4755088 0 0 0 1.05106,-0.700708 0.58509069,0.58509069 0 0 1 0.82334,0 0.53954471,0.53954471 0 0 1 0.15765,0.420425 0.66917558,0.66917558 0 0 1 -0.21371,0.458963 4.1657056,4.1657056 0 0 1 -0.45896,0.381885 3.9695075,3.9695075 0 0 1 -0.70071,0.402907 4.8839306,4.8839306 0 0 1 -0.89691,0.308311 4.5545982,4.5545982 0 0 1 -4.24979,-1.14916 4.3584001,4.3584001 0 0 1 -0.97048,-1.418932 4.4705133,4.4705133 0 0 1 -0.35035,-1.793811 4.4389814,4.4389814 0 0 1 1.29631,-3.1531837 4.6491937,4.6491937 0 0 1 1.43995,-0.970479 4.9049519,4.9049519 0 0 1 1.80082,-0.402907 3.6611962,3.6611962 0 0 1 1.05106,0.140141 4.9610085,4.9610085 0 0 1 0.85837,0.350354 4.775321,4.775321 0 0 1 0.68319,0.420425 q 0.2978,0.224226 0.48699,0.392396 a 0.76727461,0.76727461 0 0 1 0.1962,0.3503527 0.42042445,0.42042445 0 0 1 -0.12263,0.458964 0.58509069,0.58509069 0 0 1 -0.82333,0 z"
     id="path52"
     inkscape:connector-curvature="0"
     style="fill:#c5cbe6;stroke-width:0.35035372" />
  <path
     d="m 125.17788,13.010887 a 4.3654072,4.3654072 0 0 1 0.35035,-1.727244 4.5545982,4.5545982 0 0 1 2.35087,-2.3999227 4.4354779,4.4354779 0 0 1 1.72024,-0.374879 0.6621685,0.6621685 0 0 1 0.47648,0.16817 0.56406947,0.56406947 0 0 1 0,0.819828 0.6621685,0.6621685 0 0 1 -0.47648,0.16817 3.2723036,3.2723036 0 0 0 -1.27178,0.290793 3.5035371,3.5035371 0 0 0 -1.05107,0.7182247 3.2267576,3.2267576 0 0 0 -0.7007,1.051061 3.3003319,3.3003319 0 0 0 -0.25226,1.278791 v 4.004543 a 0.57983538,0.57983538 0 1 1 -1.15967,0 z"
     id="path54"
     inkscape:connector-curvature="0"
     style="fill:#c5cbe6;stroke-width:0.35035372" />
  <path
     d="m 130.61536,6.5118253 a 0.76727461,0.76727461 0 1 1 0.22423,0.543049 0.73574278,0.73574278 0 0 1 -0.22423,-0.543049 z m 0.18569,2.578604 a 0.57983538,0.57983538 0 1 1 1.15967,0 v 7.9179927 a 0.57983538,0.57983538 0 1 1 -1.15967,0 z"
     id="path56"
     inkscape:connector-curvature="0"
     style="fill:#c5cbe6;stroke-width:0.35035372" />
  <path
     d="m 137.50682,17.586506 a 4.0395782,4.0395782 0 0 1 -1.91994,-0.529034 6.1241828,6.1241828 0 0 1 -1.47499,-1.166678 v 4.498542 a 0.57983538,0.57983538 0 1 1 -1.15967,0 v -7.357428 a 4.4740168,4.4740168 0 0 1 0.35036,-1.793811 4.3619036,4.3619036 0 0 1 0.97048,-1.4189327 4.5125557,4.5125557 0 0 1 3.1742,-1.271784 4.4529956,4.4529956 0 0 1 3.20223,1.327841 4.7017467,4.7017467 0 0 1 0.96348,1.4294427 4.4004425,4.4004425 0 0 1 0,3.482516 4.7087538,4.7087538 0 0 1 -2.41044,2.41744 4.1376773,4.1376773 0 0 1 -1.69571,0.381886 z m -3.38091,-4.554598 a 3.4229557,3.4229557 0 0 0 0.2978,1.345358 3.5911255,3.5911255 0 0 0 0.72874,1.051061 3.261793,3.261793 0 0 0 2.31583,0.952962 3.314346,3.314346 0 0 0 1.30682,-0.262765 3.3283602,3.3283602 0 0 0 1.79381,-1.755272 3.3178496,3.3178496 0 0 0 0.26277,-1.306819 3.2512824,3.2512824 0 0 0 -0.26277,-1.296309 3.3563885,3.3563885 0 0 0 -1.79381,-1.7833007 3.3213531,3.3213531 0 0 0 -1.30682,-0.262765 3.2512824,3.2512824 0 0 0 -1.29981,0.262765 3.3809133,3.3809133 0 0 0 -1.7833,1.7833007 3.2407718,3.2407718 0 0 0 -0.25926,1.289301 z"
     id="path58"
     inkscape:connector-curvature="0"
     style="fill:#c5cbe6;stroke-width:0.35035372" />
  <path
     d="m 142.59396,6.1754863 a 0.57983538,0.57983538 0 1 1 1.15967,0 v 2.29832 h 4.12717 a 0.66567204,0.66567204 0 0 1 0.47648,0.16817 0.56406947,0.56406947 0 0 1 0,0.823331 0.66567204,0.66567204 0 0 1 -0.47648,0.16817 h -4.11666 v 3.4544867 a 3.2442753,3.2442753 0 0 0 0.26276,1.296309 3.3774097,3.3774097 0 0 0 1.7833,1.7833 3.2442753,3.2442753 0 0 0 1.29631,0.262766 3.2828142,3.2828142 0 0 0 1.28931,-0.252255 3.2407718,3.2407718 0 0 0 1.05106,-0.700707 0.58859422,0.58859422 0 0 1 0.38188,-0.196198 0.60260837,0.60260837 0 0 1 0.43794,0.122623 0.66917558,0.66917558 0 0 1 0.18569,0.374879 0.5956013,0.5956013 0 0 1 -0.0946,0.430935 4.3619036,4.3619036 0 0 1 -1.45748,1.016026 4.4670097,4.4670097 0 0 1 -1.79381,0.350353 4.3759178,4.3759178 0 0 1 -1.75176,-0.350353 4.495038,4.495038 0 0 1 -2.41044,-2.382406 4.3794213,4.3794213 0 0 1 -0.35035,-1.751768 z"
     id="path60"
     inkscape:connector-curvature="0"
     style="fill:#c5cbe6;stroke-width:0.35035372" />
  <path
     d="m 150.87982,6.5118253 a 0.76727461,0.76727461 0 1 1 0.22423,0.543049 0.73574278,0.73574278 0 0 1 -0.22423,-0.543049 z m 0.18569,2.578604 a 0.57983538,0.57983538 0 1 1 1.15967,0 v 7.9179927 a 0.57983538,0.57983538 0 1 1 -1.15967,0 z"
     id="path62"
     inkscape:connector-curvature="0"
     style="fill:#c5cbe6;stroke-width:0.35035372" />
  <path
     d="m 153.19566,13.010887 a 4.3794213,4.3794213 0 0 1 0.35035,-1.751769 4.4915345,4.4915345 0 0 1 2.38942,-2.3894117 4.5195628,4.5195628 0 0 1 3.50353,0 4.4915345,4.4915345 0 0 1 2.38942,2.3894117 4.3864284,4.3864284 0 0 1 0.35035,1.751769 v 3.997535 a 0.578085,0.578085 0 1 1 -1.15617,0 v -3.997535 a 3.2442753,3.2442753 0 0 0 -0.26276,-1.296309 3.3774097,3.3774097 0 0 0 -1.7833,-1.7832997 3.352885,3.352885 0 0 0 -2.59612,0 3.3739062,3.3739062 0 0 0 -1.7833,1.7832997 3.2442753,3.2442753 0 0 0 -0.26277,1.296309 v 3.997535 a 0.578085,0.578085 0 1 1 -1.15617,0 z"
     id="path64"
     inkscape:connector-curvature="0"
     style="fill:#c5cbe6;stroke-width:0.35035372" />
  <path
     d="m 166.49509,20.932384 a 1.1982097,1.1982097 0 0 0 -0.50451,0.185687 1.2402521,1.2402521 0 0 0 -0.43094,0.409914 0.57808361,0.57808361 0 0 1 -0.35035,0.280283 0.62012606,0.62012606 0 0 1 -0.44845,-0.01752 0.53954471,0.53954471 0 0 1 -0.26978,-0.350353 0.59910484,0.59910484 0 0 1 0.028,-0.430935 2.1897107,2.1897107 0 0 1 0.7848,-0.886395 2.1021222,2.1021222 0 0 1 1.17718,-0.350354 h 2.45248 a 1.9234418,1.9234418 0 0 0 1.81133,-2.606631 1.8148322,1.8148322 0 0 0 -0.40291,-0.606112 4.8243705,4.8243705 0 0 1 -1.30682,0.728735 4.396939,4.396939 0 0 1 -1.53104,0.262766 4.5090522,4.5090522 0 0 1 -3.18822,-1.289302 4.3548966,4.3548966 0 0 1 -0.97048,-1.418933 4.4775204,4.4775204 0 0 1 -0.35036,-1.793811 4.4389814,4.4389814 0 0 1 1.29631,-3.1531827 4.6456901,4.6456901 0 0 1 1.43645,-0.97048 4.9224696,4.9224696 0 0 1 1.80082,-0.402906 4.1341737,4.1341737 0 0 1 1.70973,0.350353 4.7087538,4.7087538 0 0 1 2.41043,2.4174407 4.2883293,4.2883293 0 0 1 0.35035,1.751768 4.3689107,4.3689107 0 0 1 -0.8969,2.669696 3.1531833,3.1531833 0 0 1 0.65516,0.963472 3.0200489,3.0200489 0 0 1 0,2.371895 3.261793,3.261793 0 0 1 -0.65516,0.97048 3.0305595,3.0305595 0 0 1 -0.97048,0.662168 2.9780065,2.9780065 0 0 1 -1.19471,0.241744 z m -2.33336,-7.882959 a 3.2372682,3.2372682 0 0 0 0.25926,1.313827 3.3774097,3.3774097 0 0 0 1.7833,1.751768 3.2407718,3.2407718 0 0 0 1.29982,0.262766 3.307339,3.307339 0 0 0 1.30682,-0.262766 3.3493814,3.3493814 0 0 0 1.07558,-0.700707 3.3844168,3.3844168 0 0 0 0.71823,-1.051061 3.2442753,3.2442753 0 0 0 0.26276,-1.299812 3.314346,3.314346 0 0 0 -0.26276,-1.30682 3.3283602,3.3283602 0 0 0 -1.79381,-1.7938107 3.3213531,3.3213531 0 0 0 -1.30682,-0.262765 3.2512824,3.2512824 0 0 0 -1.29982,0.262765 3.3914239,3.3914239 0 0 0 -1.05106,0.7182247 3.3493814,3.3493814 0 0 0 -0.71822,1.075586 3.307339,3.307339 0 0 0 -0.27328,1.292805 z"
     id="path66"
     inkscape:connector-curvature="0"
     style="fill:#c5cbe6;stroke-width:0.35035372" />
</svg>
