<?xml version="1.0" encoding="UTF-8" standalone="no"?>
<svg
   xmlns:dc="http://purl.org/dc/elements/1.1/"
   xmlns:cc="http://creativecommons.org/ns#"
   xmlns:rdf="http://www.w3.org/1999/02/22-rdf-syntax-ns#"
   xmlns:svg="http://www.w3.org/2000/svg"
   xmlns="http://www.w3.org/2000/svg"
   xmlns:sodipodi="http://sodipodi.sourceforge.net/DTD/sodipodi-0.dtd"
   xmlns:inkscape="http://www.inkscape.org/namespaces/inkscape"
   id="72484d24-06e9-4347-82cd-a2a5ebde99de"
   data-name="Слой 1"
   width="221"
   height="29.83075"
   viewBox="0 0 221 29.830751"
   version="1.1"
   sodipodi:docname="cloudscripting2.svg"
   inkscape:version="0.92.4 (unknown)">
  <metadata
     id="metadata73">
    <rdf:RDF>
      <cc:Work
         rdf:about="">
        <dc:format>image/svg+xml</dc:format>
        <dc:type
           rdf:resource="http://purl.org/dc/dcmitype/StillImage" />
        <dc:title>cs2</dc:title>
      </cc:Work>
    </rdf:RDF>
  </metadata>
  <defs
     id="defs71" />
  <sodipodi:namedview
     pagecolor="#ffffff"
     bordercolor="#666666"
     borderopacity="1"
     objecttolerance="10"
     gridtolerance="10"
     guidetolerance="10"
     inkscape:pageopacity="0"
     inkscape:pageshadow="2"
     inkscape:window-width="1853"
     inkscape:window-height="1022"
     id="namedview69"
     showgrid="false"
     inkscape:zoom="0.75560081"
     inkscape:cx="245.5"
     inkscape:cy="33.135002"
     inkscape:window-x="1987"
     inkscape:window-y="30"
     inkscape:window-maximized="1"
     inkscape:current-layer="72484d24-06e9-4347-82cd-a2a5ebde99de" />
  <title
     id="title2">cs2</title>
  <path
     d="m 16.65606,23.740033 h -2.881049 a 0.45016377,0.45016377 0 0 0 -0.373636,0.216079 l -1.904192,3.263687 H 8.5531117 v 0.868816 h 3.1736543 a 0.45016377,0.45016377 0 0 0 0.373636,-0.216078 l 1.904193,-3.263688 h 2.651465 a 0.45016377,0.45016377 0 1 0 0,-0.868816 z"
     id="path4"
     inkscape:connector-curvature="0"
     style="fill:#00abff;stroke-width:0.45016378" />
  <path
     d="M 20.446439,17.941924 H 10.421291 L 7.3376695,15.97921 A 0.45016377,0.45016377 0 0 0 7.1035843,15.911685 H 3.8714084 v 0.868816 h 3.1061301 l 3.0836215,1.962714 a 0.45016377,0.45016377 0 0 0 0.234085,0.06753 h 10.151194 a 0.45016377,0.45016377 0 0 0 0,-0.868816 z"
     id="path6"
     inkscape:connector-curvature="0"
     style="fill:#00abff;stroke-width:0.45016378" />
  <path
     d="M 25.375732,10.401681 H 16.32744 L 14.135142,7.1154852 a 0.45016377,0.45016377 0 0 0 -0.360131,-0.19357 h -3.758867 v 0.868816 h 3.524782 l 2.214806,3.2861948 a 0.45016377,0.45016377 0 0 0 0.360131,0.193571 h 9.259869 a 0.45016377,0.45016377 0 0 0 0,-0.868816 z"
     id="path8"
     inkscape:connector-curvature="0"
     style="fill:#00abff;stroke-width:0.45016378" />
  <path
     d="m 60.641562,27.219799 h -2.538924 l -1.904193,-3.263687 a 0.45016377,0.45016377 0 0 0 -0.373636,-0.216079 h -2.899054 a 0.45016377,0.45016377 0 1 0 0,0.868816 h 2.651464 l 1.904193,3.263688 a 0.45016377,0.45016377 0 0 0 0.373636,0.216078 h 2.786514 z"
     id="path10"
     inkscape:connector-curvature="0"
     style="fill:#00abff;stroke-width:0.45016378" />
  <path
     d="m 65.723911,15.911685 h -3.209668 a 0.45016377,0.45016377 0 0 0 -0.234085,0.06753 l -3.083622,1.962714 H 49.157884 a 0.45016377,0.45016377 0 0 0 0,0.868816 h 10.151193 a 0.45016377,0.45016377 0 0 0 0.234085,-0.06753 l 3.083622,-1.962714 h 3.097127 z"
     id="path12"
     inkscape:connector-curvature="0"
     style="fill:#00abff;stroke-width:0.45016378" />
  <path
     d="m 59.556667,6.9219152 h -3.736359 a 0.45016377,0.45016377 0 0 0 -0.360131,0.19357 l -2.192298,3.2861958 h -9.04379 a 0.45016377,0.45016377 0 0 0 0,0.868816 h 9.282377 a 0.45016377,0.45016377 0 0 0 0.360131,-0.193571 l 2.192298,-3.2861948 h 3.497772 z"
     id="path14"
     inkscape:connector-curvature="0"
     style="fill:#00abff;stroke-width:0.45016378" />
  <path
     d="M 61.046709,9.5328652 A 2.174291,2.174291 0 1 1 63.221,7.3585732 2.1787927,2.1787927 0 0 1 61.046709,9.5328652 Z m 0,-3.479766 a 1.3054749,1.3054749 0 1 0 1.305475,1.305474 1.3054749,1.3054749 0 0 0 -1.305475,-1.305474 z"
     id="path16"
     inkscape:connector-curvature="0"
     style="fill:#00abff;stroke-width:0.45016378" />
  <path
     d="m 67.42553,18.522635 a 2.174291,2.174291 0 1 1 2.174291,-2.174291 2.1787927,2.1787927 0 0 1 -2.174291,2.174291 z m 0,-3.479766 a 1.3054749,1.3054749 0 1 0 1.305475,1.305475 1.3054749,1.3054749 0 0 0 -1.305475,-1.305475 z"
     id="path18"
     inkscape:connector-curvature="0"
     style="fill:#00abff;stroke-width:0.45016378" />
  <path
     d="m 62.496236,29.830749 a 2.174291,2.174291 0 1 1 2.174292,-2.174291 2.1787927,2.1787927 0 0 1 -2.174292,2.174291 z m 0,-3.479766 a 1.3054749,1.3054749 0 1 0 1.305475,1.305475 1.3054749,1.3054749 0 0 0 -1.305475,-1.305475 z"
     id="path20"
     inkscape:connector-curvature="0"
     style="fill:#00abff;stroke-width:0.45016378" />
  <path
     d="m 8.5531117,9.5328652 a 2.174291,2.174291 0 1 1 2.1742913,-2.174292 2.1787927,2.1787927 0 0 1 -2.1742913,2.174292 z m 0,-3.479766 a 1.3054749,1.3054749 0 1 0 1.3054749,1.305474 1.3054749,1.3054749 0 0 0 -1.3054749,-1.305474 z"
     id="path22"
     inkscape:connector-curvature="0"
     style="fill:#00abff;stroke-width:0.45016378" />
  <path
     d="m 2.174291,18.522635 a 2.174291,2.174291 0 1 1 2.174291,-2.174291 2.1787927,2.1787927 0 0 1 -2.174291,2.174291 z m 0,-3.479766 a 1.3054749,1.3054749 0 1 0 1.305475,1.305475 1.3054749,1.3054749 0 0 0 -1.305475,-1.305475 z"
     id="path24"
     inkscape:connector-curvature="0"
     style="fill:#00abff;stroke-width:0.45016378" />
  <path
     d="m 7.1035843,29.830749 a 2.174291,2.174291 0 1 1 2.174291,-2.174291 2.1787927,2.1787927 0 0 1 -2.174291,2.174291 z m 0,-3.479766 a 1.3054749,1.3054749 0 1 0 1.305475,1.305475 1.3054749,1.3054749 0 0 0 -1.305475,-1.305475 z"
     id="path26"
     inkscape:connector-curvature="0"
     style="fill:#00abff;stroke-width:0.45016378" />
  <path
     d="M 50.611913,11.220979 A 9.0032754,9.0032754 0 0 0 39.893513,6.1026172 12.604586,12.604586 0 0 0 16.863135,12.152818 9.0032754,9.0032754 0 0 0 21.751913,28.669326 H 47.564304 A 9.0032754,9.0032754 0 0 0 50.616415,11.220979 Z"
     id="path28"
     inkscape:connector-curvature="0"
     style="fill:#3e4357;stroke-width:0.45016378" />
  <path
     d="M 47.559803,29.214025 H 21.751913 A 9.5299671,9.5299671 0 0 1 16.349948,11.8287 13.158287,13.158287 0 0 1 40.127599,5.4813912 9.5299671,9.5299671 0 0 1 51.01706,10.802326 9.5344687,9.5344687 0 0 1 47.564304,29.223028 Z M 29.436209,1.0832912 A 12.127412,12.127412 0 0 0 17.403331,12.179827 v 0.265597 l -0.225081,0.144053 a 8.4450724,8.4450724 0 0 0 4.59167,15.539653 h 25.812391 a 8.449574,8.449574 0 0 0 2.836031,-16.394965 l -0.22058,-0.08103 -0.09453,-0.216079 A 8.449574,8.449574 0 0 0 40.042068,6.6203052 L 39.66393,6.7283442 39.44335,6.4042262 A 12.068891,12.068891 0 0 0 29.436209,1.0832912 Z"
     id="path30"
     inkscape:connector-curvature="0"
     style="fill:#00abff;stroke-width:0.45016378" />
  <path
     d="m 33.312119,14.68724 a 3.839897,3.839897 0 0 0 -2.759504,-1.138915 3.5743004,3.5743004 0 0 0 -3.722854,3.632822 3.6328216,3.6328216 0 0 0 3.718353,3.524782 3.7228544,3.7228544 0 0 0 2.99809,-1.481038 l 0.846308,1.152419 a 5.1633785,5.1633785 0 0 1 -3.862405,1.710622 5.0103228,5.0103228 0 0 1 -5.068844,-5.073346 c 0,-2.786513 2.381366,-4.861768 5.086851,-4.861768 a 5.1273654,5.1273654 0 0 1 3.632821,1.494543 z"
     id="path32"
     inkscape:connector-curvature="0"
     style="fill:#00abff;stroke-width:0.45016378" />
  <path
     d="M 39.546887,22.092434 A 5.0103228,5.0103228 0 0 1 35.661974,20.15673 l 0.985859,-0.922836 a 3.727356,3.727356 0 0 0 2.899054,1.472035 c 1.391006,0 2.795517,-0.531193 2.795517,-1.710622 0,-1.440524 -1.427019,-1.440524 -2.795517,-1.440524 -2.250818,0 -3.479766,-0.837305 -3.479766,-2.444389 0,-1.530557 1.454029,-2.962078 3.479766,-2.962078 a 5.1453719,5.1453719 0 0 1 3.799383,1.494544 l -0.859813,1.012868 a 4.0829854,4.0829854 0 0 0 -2.935068,-1.111904 c -1.062386,0 -1.949209,0.733767 -1.949209,1.557566 0,0.571708 0.405147,1.089397 2.012232,1.089397 3.304202,0 4.15051,1.026373 4.15051,2.809022 -0.0045,1.899691 -1.827665,3.092625 -4.218035,3.092625 z"
     id="path34"
     inkscape:connector-curvature="0"
     style="fill:#00abff;stroke-width:0.45016378" />
  <path
     d="M 18.956396,18.31556 V 17.077609 L 23.85868,13.86344 v 1.647599 l -3.506776,2.187796 3.506776,2.187796 v 1.643098 z"
     id="path36"
     inkscape:connector-curvature="0"
     style="fill:#00abff;stroke-width:0.45016378" />
  <path
     d="m 45.723134,21.534231 v -1.6476 L 49.22991,17.698835 45.723134,15.511039 V 13.86344 l 4.924792,3.214169 v 1.242452 z"
     id="path38"
     inkscape:connector-curvature="0"
     style="fill:#00abff;stroke-width:0.45016378" />
  <path
     d="m 77.131061,14.894315 a 6.063706,6.063706 0 0 0 0.481675,2.399373 6.2617781,6.2617781 0 0 0 1.309977,1.967216 6.1807486,6.1807486 0 0 0 1.95371,1.350491 5.9331585,5.9331585 0 0 0 2.403875,0.477174 6.1177257,6.1177257 0 0 0 2.507412,-0.517689 5.9916798,5.9916798 0 0 0 1.994226,-1.427019 0.92733737,0.92733737 0 0 1 0.490678,-0.288105 0.63923256,0.63923256 0 0 1 0.540197,0.09454 0.72026204,0.72026204 0 0 1 0.265596,0.589714 0.90032754,0.90032754 0 0 1 -0.216078,0.612223 7.4096957,7.4096957 0 0 1 -2.493908,1.800655 7.5717546,7.5717546 0 0 1 -3.088123,0.621226 7.4367055,7.4367055 0 0 1 -2.975583,-0.598718 7.6077677,7.6077677 0 0 1 -2.426382,-1.643098 7.8058398,7.8058398 0 0 1 -1.629593,-2.448891 7.7383152,7.7383152 0 0 1 0,-5.973673 7.7113054,7.7113054 0 0 1 4.051474,-4.1054928 7.5627514,7.5627514 0 0 1 5.987178,0 7.8868693,7.8868693 0 0 1 2.457894,1.701619 1.2019373,1.2019373 0 0 1 0.288105,0.481675 0.62122601,0.62122601 0 0 1 -0.07203,0.5537008 0.69325221,0.69325221 0 0 1 -0.562705,0.310613 0.7877866,0.7877866 0 0 1 -0.616724,-0.229583 10.569845,10.569845 0 0 0 -2.016734,-1.3504908 5.2759194,5.2759194 0 0 0 -2.484904,-0.594217 5.9331585,5.9331585 0 0 0 -2.399373,0.490679 6.0952175,6.0952175 0 0 0 -1.953711,1.3504908 6.4193354,6.4193354 0 0 0 -1.309976,1.980721 6.063706,6.063706 0 0 0 -0.486177,2.394871 z"
     id="path40"
     inkscape:connector-curvature="0"
     style="fill:#00abff;stroke-width:0.45016378" />
  <path
     d="m 94.93954,21.853847 a 0.73826859,0.73826859 0 0 1 -0.742771,0.74277 3.9794477,3.9794477 0 0 1 -1.845671,-0.450164 3.8804117,3.8804117 0 0 1 -1.86818,-2.259822 4.1820214,4.1820214 0 0 1 -0.202573,-1.201937 V 7.9347832 a 0.74502104,0.74502104 0 1 1 1.490042,0 V 18.684694 a 2.9440711,2.9440711 0 0 0 0.08553,0.57621 2.4083762,2.4083762 0 0 0 0.346626,0.792288 2.3273467,2.3273467 0 0 0 2.016734,1.057885 0.73826859,0.73826859 0 0 1 0.74277,0.74277 z"
     id="path42"
     inkscape:connector-curvature="0"
     style="fill:#00abff;stroke-width:0.45016378" />
  <path
     d="m 100.53057,10.982392 a 5.3074309,5.3074309 0 0 1 2.1968,0.450164 6.0547027,6.0547027 0 0 1 3.09713,3.10613 5.6495553,5.6495553 0 0 1 0,4.474628 6.0411978,6.0411978 0 0 1 -1.23795,1.836668 5.7260832,5.7260832 0 0 1 -4.1145,1.701619 5.7981094,5.7981094 0 0 1 -4.078481,-1.634095 5.6000373,5.6000373 0 0 1 -1.246954,-1.823163 5.7440897,5.7440897 0 0 1 -0.450164,-2.304838 5.703575,5.703575 0 0 1 1.670108,-4.051474 5.9781749,5.9781749 0 0 1 1.845671,-1.246954 6.3022928,6.3022928 0 0 1 2.31834,-0.508685 z m -4.344077,5.852129 a 4.1685165,4.1685165 0 0 0 0.337623,1.665606 4.3395788,4.3395788 0 0 0 2.291334,2.291333 4.1685165,4.1685165 0 0 0 1.66561,0.337623 4.2540476,4.2540476 0 0 0 1.67911,-0.337623 4.3080673,4.3080673 0 0 0 1.3775,-0.940842 4.3575853,4.3575853 0 0 0 0.92283,-1.350491 4.1775198,4.1775198 0 0 0 0.33763,-1.665606 4.2630509,4.2630509 0 0 0 -0.33763,-1.679111 4.2765558,4.2765558 0 0 0 -2.30484,-2.304838 4.2540476,4.2540476 0 0 0 -1.67911,-0.337623 4.1685165,4.1685165 0 0 0 -1.665602,0.337623 4.3125689,4.3125689 0 0 0 -2.291334,2.304838 4.2540476,4.2540476 0 0 0 -0.333121,1.661104 z"
     id="path44"
     inkscape:connector-curvature="0"
     style="fill:#00abff;stroke-width:0.45016378" />
  <path
     d="m 107.37306,11.680146 a 0.74277022,0.74277022 0 1 1 1.48554,0 v 5.136368 a 4.1685165,4.1685165 0 0 0 0.33763,1.665606 4.3350771,4.3350771 0 0 0 2.29133,2.291334 4.3080673,4.3080673 0 0 0 3.33571,0 4.3395788,4.3395788 0 0 0 2.29134,-2.291334 4.1685165,4.1685165 0 0 0 0.33762,-1.665606 v -5.136368 a 0.74277022,0.74277022 0 1 1 1.48554,0 v 5.136368 a 5.6315488,5.6315488 0 0 1 -0.45016,2.250819 5.7756012,5.7756012 0 0 1 -3.07012,3.070117 5.8071127,5.8071127 0 0 1 -4.50164,0 5.7756012,5.7756012 0 0 1 -3.07012,-3.070117 5.6270472,5.6270472 0 0 1 -0.45016,-2.250819 z"
     id="path46"
     inkscape:connector-curvature="0"
     style="fill:#00abff;stroke-width:0.45016378" />
  <path
     d="m 125.49215,10.982392 a 5.2038932,5.2038932 0 0 1 2.4489,0.684249 7.9138791,7.9138791 0 0 1 1.89519,1.499045 V 7.9347832 a 0.74277022,0.74277022 0 1 1 1.48554,0 v 8.8817308 a 5.753093,5.753093 0 0 1 -0.45017,2.304839 5.6000373,5.6000373 0 0 1 -1.24695,1.823163 5.7485914,5.7485914 0 0 1 -1.84567,1.201937 5.852129,5.852129 0 0 1 -2.25082,0.450164 5.7260832,5.7260832 0 0 1 -4.1145,-1.701619 6.0321945,6.0321945 0 0 1 -1.21994,-1.859176 5.654057,5.654057 0 0 1 0,-4.474628 6.0502011,6.0502011 0 0 1 3.09712,-3.10613 5.3074309,5.3074309 0 0 1 2.2013,-0.472672 z m 4.34409,5.852129 a 4.9022835,4.9022835 0 0 0 -0.39615,-1.728629 4.4386148,4.4386148 0 0 0 -0.92283,-1.350491 4.1910247,4.1910247 0 0 0 -2.97559,-1.224446 4.2540476,4.2540476 0 0 0 -1.67911,0.337623 4.2765558,4.2765558 0 0 0 -2.31834,2.264324 4.2450444,4.2450444 0 0 0 -0.33762,1.679111 4.1595133,4.1595133 0 0 0 0.33762,1.665606 4.3080673,4.3080673 0 0 0 2.30484,2.291333 4.2540476,4.2540476 0 0 0 1.67911,0.337623 4.1685165,4.1685165 0 0 0 1.6656,-0.337623 4.3350771,4.3350771 0 0 0 2.29134,-2.291333 4.1685165,4.1685165 0 0 0 0.35113,-1.661105 z"
     id="path48"
     inkscape:connector-curvature="0"
     style="fill:#00abff;stroke-width:0.45016378" />
  <path
     d="m 146.96947,10.860848 a 1.5350585,1.5350585 0 0 0 -0.31061,-0.828302 2.8000187,2.8000187 0 0 0 -0.77879,-0.7067568 4.2405427,4.2405427 0 0 0 -1.13891,-0.490678 5.0868506,5.0868506 0 0 0 -1.35049,-0.180066 5.3119325,5.3119325 0 0 0 -1.40451,0.180066 4.0244641,4.0244641 0 0 0 -1.13892,0.490678 2.6289564,2.6289564 0 0 0 -0.76978,0.7427698 1.6205896,1.6205896 0 0 0 -0.2881,0.900328 1.2739635,1.2739635 0 0 0 0.36013,0.877819 3.2951988,3.2951988 0 0 0 0.90032,0.684249 6.5498829,6.5498829 0 0 0 1.16593,0.481675 7.0900794,7.0900794 0 0 0 1.17493,0.265597 7.7023021,7.7023021 0 0 1 2.07525,0.517688 6.3833223,6.3833223 0 0 1 1.69262,0.994862 4.4296115,4.4296115 0 0 1 1.1074,1.413515 3.790379,3.790379 0 0 1 0.40965,1.742133 4.0514739,4.0514739 0 0 1 -0.41865,1.800656 4.5016377,4.5016377 0 0 1 -1.16593,1.476537 5.9691716,5.9691716 0 0 1 -3.83989,1.350491 6.0997191,6.0997191 0 0 1 -2.11127,-0.360131 5.5730275,5.5730275 0 0 1 -1.72863,-0.994862 4.6772016,4.6772016 0 0 1 -1.16593,-1.476537 3.9659428,3.9659428 0 0 1 -0.41865,-1.800655 0.69775385,0.69775385 0 0 1 1.39101,0 2.646963,2.646963 0 0 0 0.31061,1.260458 3.2366775,3.2366775 0 0 0 0.85531,1.053384 4.2090313,4.2090313 0 0 0 1.26946,0.684248 4.8032474,4.8032474 0 0 0 1.57108,0.252092 4.9112868,4.9112868 0 0 0 1.58457,-0.252092 4.5016377,4.5016377 0 0 0 1.30998,-0.684248 3.1196349,3.1196349 0 0 0 0.87782,-1.021872 2.2913336,2.2913336 0 0 0 0.26559,-1.260459 2.5389237,2.5389237 0 0 0 -0.38263,-1.165924 3.7813757,3.7813757 0 0 0 -0.86432,-0.958849 4.8572671,4.8572671 0 0 0 -1.21094,-0.697754 6.635414,6.635414 0 0 0 -1.42702,-0.396144 7.7428169,7.7428169 0 0 1 -1.9312,-0.382639 6.2392699,6.2392699 0 0 1 -1.62059,-0.805793 4.100992,4.100992 0 0 1 -1.11641,-1.152419 2.646963,2.646963 0 0 1 -0.41865,-1.454029 2.8990547,2.8990547 0 0 1 0.39614,-1.4765378 3.9794477,3.9794477 0 0 1 1.0939,-1.201937 5.6270472,5.6270472 0 0 1 1.62059,-0.814796 6.684932,6.684932 0 0 1 3.96144,0 5.6270472,5.6270472 0 0 1 1.62059,0.814796 3.9794477,3.9794477 0 0 1 1.0939,1.201937 2.8990547,2.8990547 0 0 1 0.39615,1.4765378 0.73826859,0.73826859 0 0 1 -0.76078,0.74277 0.66174075,0.66174075 0 0 1 -0.51769,-0.229584 0.98135702,0.98135702 0 0 1 -0.22508,-0.612222 z"
     id="path50"
     inkscape:connector-curvature="0"
     style="fill:#c5cbe6;stroke-width:0.45016378" />
  <path
     d="m 158.45765,13.719388 a 5.0013195,5.0013195 0 0 0 -1.35049,-0.85081 4.2270378,4.2270378 0 0 0 -1.65661,-0.324118 4.1640149,4.1640149 0 0 0 -1.6656,0.337623 4.3080673,4.3080673 0 0 0 -2.29134,2.304838 4.2585493,4.2585493 0 0 0 -0.33762,1.679111 4.1685165,4.1685165 0 0 0 0.33762,1.670108 4.3395788,4.3395788 0 0 0 2.29134,2.291334 4.1550116,4.1550116 0 0 0 1.6656,0.337622 4.2180345,4.2180345 0 0 0 1.65661,-0.324118 4.4656246,4.4656246 0 0 0 1.35049,-0.900327 0.7517735,0.7517735 0 0 1 1.05788,0 0.69325221,0.69325221 0 0 1 0.20258,0.540196 0.8598128,0.8598128 0 0 1 -0.2746,0.589715 5.3524473,5.3524473 0 0 1 -0.58972,0.490679 5.1003555,5.1003555 0 0 1 -0.90033,0.517688 6.275283,6.275283 0 0 1 -1.15241,0.396144 5.852129,5.852129 0 0 1 -5.46049,-1.476537 5.6000373,5.6000373 0 0 1 -1.24696,-1.823163 5.7440897,5.7440897 0 0 1 -0.45016,-2.304839 5.703575,5.703575 0 0 1 1.66561,-4.051474 5.9736733,5.9736733 0 0 1 1.85017,-1.246954 6.3022928,6.3022928 0 0 1 2.31384,-0.517688 4.7042114,4.7042114 0 0 1 1.35049,0.180066 6.374319,6.374319 0 0 1 1.1029,0.450163 6.1357322,6.1357322 0 0 1 0.87782,0.540197 q 0.38264,0.288105 0.62573,0.504183 a 0.98585866,0.98585866 0 0 1 0.25209,0.450164 0.54019653,0.54019653 0 0 1 -0.15755,0.589715 0.7517735,0.7517735 0 0 1 -1.05789,0 z"
     id="path52"
     inkscape:connector-curvature="0"
     style="fill:#c5cbe6;stroke-width:0.45016378" />
  <path
     d="m 160.83901,16.717478 a 5.6090406,5.6090406 0 0 1 0.45017,-2.219307 5.852129,5.852129 0 0 1 3.0206,-3.083622 5.6990734,5.6990734 0 0 1 2.2103,-0.481675 0.85080953,0.85080953 0 0 1 0.61222,0.216078 0.72476367,0.72476367 0 0 1 0,1.053384 0.85080953,0.85080953 0 0 1 -0.61222,0.216078 4.2045296,4.2045296 0 0 0 -1.63409,0.373636 4.5016377,4.5016377 0 0 0 -1.35049,0.922836 4.1460083,4.1460083 0 0 0 -0.90033,1.350491 4.2405427,4.2405427 0 0 0 -0.32412,1.643098 v 5.145372 a 0.74502104,0.74502104 0 1 1 -1.49004,0 z"
     id="path54"
     inkscape:connector-curvature="0"
     style="fill:#c5cbe6;stroke-width:0.45016378" />
  <path
     d="m 167.82556,8.3669402 a 0.98585866,0.98585866 0 1 1 0.2881,0.697754 0.94534392,0.94534392 0 0 1 -0.2881,-0.697754 z m 0.23858,3.3132058 a 0.74502104,0.74502104 0 1 1 1.49004,0 v 10.173701 a 0.74502104,0.74502104 0 1 1 -1.49004,0 z"
     id="path56"
     inkscape:connector-curvature="0"
     style="fill:#c5cbe6;stroke-width:0.45016378" />
  <path
     d="m 176.68028,22.596617 a 5.1903883,5.1903883 0 0 1 -2.4669,-0.679747 7.8688627,7.8688627 0 0 1 -1.89519,-1.499045 v 5.780102 a 0.74502104,0.74502104 0 1 1 -1.49004,0 v -9.453439 a 5.7485914,5.7485914 0 0 1 0.45016,-2.304838 5.604539,5.604539 0 0 1 1.24696,-1.823164 5.7981094,5.7981094 0 0 1 4.07848,-1.634094 5.7215815,5.7215815 0 0 1 4.1145,1.706121 6.0411978,6.0411978 0 0 1 1.23795,1.836668 5.654057,5.654057 0 0 1 0,4.474628 6.0502011,6.0502011 0 0 1 -3.09713,3.10613 5.3164341,5.3164341 0 0 1 -2.17879,0.490678 z m -4.34408,-5.852129 a 4.3981001,4.3981001 0 0 0 0.38264,1.728629 4.6141787,4.6141787 0 0 0 0.93634,1.350491 4.1910247,4.1910247 0 0 0 2.97558,1.224446 4.2585493,4.2585493 0 0 0 1.67911,-0.337623 4.2765558,4.2765558 0 0 0 2.30484,-2.255321 4.2630509,4.2630509 0 0 0 0.33762,-1.67911 4.1775198,4.1775198 0 0 0 -0.33762,-1.665606 4.3125689,4.3125689 0 0 0 -2.30484,-2.291334 4.2675526,4.2675526 0 0 0 -1.67911,-0.337623 4.1775198,4.1775198 0 0 0 -1.67011,0.337623 4.3440804,4.3440804 0 0 0 -2.29133,2.291334 4.1640149,4.1640149 0 0 0 -0.33312,1.656602 z"
     id="path58"
     inkscape:connector-curvature="0"
     style="fill:#c5cbe6;stroke-width:0.45016378" />
  <path
     d="m 183.21666,7.9347832 a 0.74502104,0.74502104 0 1 1 1.49004,0 v 2.9530738 h 5.30293 a 0.85531117,0.85531117 0 0 1 0.61222,0.216079 0.72476367,0.72476367 0 0 1 0,1.057885 0.85531117,0.85531117 0 0 1 -0.61222,0.216079 h -5.28943 v 4.438614 a 4.1685165,4.1685165 0 0 0 0.33763,1.665606 4.3395788,4.3395788 0 0 0 2.29133,2.291334 4.1685165,4.1685165 0 0 0 1.6656,0.337623 4.2180345,4.2180345 0 0 0 1.65661,-0.324118 4.1640149,4.1640149 0 0 0 1.35049,-0.900328 0.75627514,0.75627514 0 0 1 0.49068,-0.252091 0.77428169,0.77428169 0 0 1 0.5627,0.157557 0.8598128,0.8598128 0 0 1 0.23859,0.481675 0.76527841,0.76527841 0 0 1 -0.12155,0.553702 5.604539,5.604539 0 0 1 -1.87268,1.305474 5.7395881,5.7395881 0 0 1 -2.30484,0.450164 5.6225455,5.6225455 0 0 1 -2.25081,-0.450164 5.7756012,5.7756012 0 0 1 -3.09713,-3.061113 5.6270472,5.6270472 0 0 1 -0.45016,-2.250819 z"
     id="path60"
     inkscape:connector-curvature="0"
     style="fill:#c5cbe6;stroke-width:0.45016378" />
  <path
     d="m 193.86303,8.3669402 a 0.98585866,0.98585866 0 1 1 0.2881,0.697754 0.94534392,0.94534392 0 0 1 -0.2881,-0.697754 z m 0.23859,3.3132058 a 0.74502104,0.74502104 0 1 1 1.49004,0 v 10.173701 a 0.74502104,0.74502104 0 1 1 -1.49004,0 z"
     id="path62"
     inkscape:connector-curvature="0"
     style="fill:#c5cbe6;stroke-width:0.45016378" />
  <path
     d="m 196.83861,16.717478 a 5.6270472,5.6270472 0 0 1 0.45016,-2.250819 5.7710996,5.7710996 0 0 1 3.07012,-3.070116 5.8071127,5.8071127 0 0 1 4.50164,0 5.7710996,5.7710996 0 0 1 3.07012,3.070116 5.6360504,5.6360504 0 0 1 0.45016,2.250819 v 5.136369 a 0.74277022,0.74277022 0 1 1 -1.48554,0 v -5.136369 a 4.1685165,4.1685165 0 0 0 -0.33762,-1.665606 4.3395788,4.3395788 0 0 0 -2.29134,-2.291333 4.3080673,4.3080673 0 0 0 -3.33571,0 4.3350771,4.3350771 0 0 0 -2.29133,2.291333 4.1685165,4.1685165 0 0 0 -0.33763,1.665606 v 5.136369 a 0.74277022,0.74277022 0 1 1 -1.48554,0 z"
     id="path64"
     inkscape:connector-curvature="0"
     style="fill:#c5cbe6;stroke-width:0.45016378" />
  <path
     d="m 213.92683,26.895681 a 1.5395601,1.5395601 0 0 0 -0.64824,0.238587 1.5935798,1.5935798 0 0 0 -0.5537,0.526692 0.74277022,0.74277022 0 0 1 -0.45016,0.360131 0.79678988,0.79678988 0 0 1 -0.57621,-0.02251 0.69325221,0.69325221 0 0 1 -0.34663,-0.450163 0.76978005,0.76978005 0 0 1 0.036,-0.553702 2.8135236,2.8135236 0 0 1 1.00837,-1.138914 2.7009826,2.7009826 0 0 1 1.51255,-0.450164 h 3.15115 a 2.4713991,2.4713991 0 0 0 2.32734,-3.349218 2.3318483,2.3318483 0 0 0 -0.51768,-0.778784 6.1987551,6.1987551 0 0 1 -1.67911,0.936341 5.6495553,5.6495553 0 0 1 -1.96722,0.337623 5.7936077,5.7936077 0 0 1 -4.09649,-1.656603 5.5955357,5.5955357 0 0 1 -1.24695,-1.823163 5.753093,5.753093 0 0 1 -0.45017,-2.304839 5.703575,5.703575 0 0 1 1.66561,-4.051474 5.9691716,5.9691716 0 0 1 1.84567,-1.246953 6.324801,6.324801 0 0 1 2.31384,-0.517689 5.3119325,5.3119325 0 0 1 2.1968,0.450164 6.0502011,6.0502011 0 0 1 3.09713,3.10613 5.5100046,5.5100046 0 0 1 0.45016,2.250819 5.6135422,5.6135422 0 0 1 -1.15242,3.430248 4.0514739,4.0514739 0 0 1 0.84181,1.23795 3.8804117,3.8804117 0 0 1 0,3.047609 4.1910247,4.1910247 0 0 1 -0.84181,1.246954 3.8939166,3.8939166 0 0 1 -1.24695,0.850809 3.8263921,3.8263921 0 0 1 -1.53506,0.310613 z m -2.99809,-10.128685 a 4.1595133,4.1595133 0 0 0 0.33312,1.688114 4.3395788,4.3395788 0 0 0 2.29133,2.250819 4.1640149,4.1640149 0 0 0 1.67011,0.337623 4.249546,4.249546 0 0 0 1.67911,-0.337623 4.3035657,4.3035657 0 0 0 1.382,-0.900327 4.348582,4.348582 0 0 0 0.92284,-1.350492 4.1685165,4.1685165 0 0 0 0.33762,-1.670107 4.2585493,4.2585493 0 0 0 -0.33762,-1.679111 4.2765558,4.2765558 0 0 0 -2.30484,-2.304839 4.2675526,4.2675526 0 0 0 -1.67911,-0.337622 4.1775198,4.1775198 0 0 0 -1.67011,0.337622 4.3575853,4.3575853 0 0 0 -1.35049,0.922836 4.3035657,4.3035657 0 0 0 -0.92284,1.382003 4.249546,4.249546 0 0 0 -0.35112,1.661104 z"
     id="path66"
     inkscape:connector-curvature="0"
     style="fill:#c5cbe6;stroke-width:0.45016378" />
</svg>
