<svg id="72484d24-06e9-4347-82cd-a2a5ebde99de" data-name="Ğ¡Ğ»Ğ¾Ğ¹ 1" xmlns="http://www.w3.org/2000/svg" width="491" height="66.27" viewBox="0 0 491 66.27"><title>cs2</title><path d="M37,52.74H30.6a1,1,0,0,0-.83.48l-4.23,7.25H19v1.93h7.05a1,1,0,0,0,.83-.48l4.23-7.25H37a1,1,0,1,0,0-1.93Z" fill="#00abff"/><path d="M45.42,39.86H23.15L16.3,35.5a1,1,0,0,0-.52-.15H8.6v1.93H15.5l6.85,4.36a1,1,0,0,0,.52.15H45.42a1,1,0,0,0,0-1.93Z" fill="#00abff"/><path d="M56.37,23.11H36.27l-4.87-7.3a1,1,0,0,0-.8-.43H22.25v1.93h7.83L35,24.61a1,1,0,0,0,.8.43H56.37a1,1,0,0,0,0-1.93Z" fill="#00abff"/><path d="M134.71,60.47h-5.64l-4.23-7.25a1,1,0,0,0-.83-.48h-6.44a1,1,0,1,0,0,1.93h5.89l4.23,7.25a1,1,0,0,0,.83.48h6.19Z" fill="#00abff"/><path d="M146,35.35h-7.13a1,1,0,0,0-.52.15l-6.85,4.36H109.2a1,1,0,0,0,0,1.93h22.55a1,1,0,0,0,.52-.15l6.85-4.36H146Z" fill="#00abff"/><path d="M132.3,15.38H124a1,1,0,0,0-.8.43l-4.87,7.3H98.24a1,1,0,0,0,0,1.93h20.62a1,1,0,0,0,.8-.43l4.87-7.3h7.77Z" fill="#00abff"/><path d="M135.61,21.18a4.83,4.83,0,1,1,4.83-4.83A4.84,4.84,0,0,1,135.61,21.18Zm0-7.73a2.9,2.9,0,1,0,2.9,2.9A2.9,2.9,0,0,0,135.61,13.45Z" fill="#00abff"/><path d="M149.78,41.15a4.83,4.83,0,1,1,4.83-4.83A4.84,4.84,0,0,1,149.78,41.15Zm0-7.73a2.9,2.9,0,1,0,2.9,2.9A2.9,2.9,0,0,0,149.78,33.42Z" fill="#00abff"/><path d="M138.83,66.27a4.83,4.83,0,1,1,4.83-4.83A4.84,4.84,0,0,1,138.83,66.27Zm0-7.73a2.9,2.9,0,1,0,2.9,2.9A2.9,2.9,0,0,0,138.83,58.54Z" fill="#00abff"/><path d="M19,21.18a4.83,4.83,0,1,1,4.83-4.83A4.84,4.84,0,0,1,19,21.18Zm0-7.73a2.9,2.9,0,1,0,2.9,2.9A2.9,2.9,0,0,0,19,13.45Z" fill="#00abff"/><path d="M4.83,41.15a4.83,4.83,0,1,1,4.83-4.83A4.84,4.84,0,0,1,4.83,41.15Zm0-7.73a2.9,2.9,0,1,0,2.9,2.9A2.9,2.9,0,0,0,4.83,33.42Z" fill="#00abff"/><path d="M15.78,66.27a4.83,4.83,0,1,1,4.83-4.83A4.84,4.84,0,0,1,15.78,66.27Zm0-7.73a2.9,2.9,0,1,0,2.9,2.9A2.9,2.9,0,0,0,15.78,58.54Z" fill="#00abff"/><path d="M112.43,24.93A20,20,0,0,0,88.62,13.56,28,28,0,0,0,37.46,27,20,20,0,0,0,48.32,63.69h57.34a20,20,0,0,0,6.78-38.76Z" fill="#3e4357"/><path d="M105.65,64.9H48.32a21.17,21.17,0,0,1-12-38.62,29.23,29.23,0,0,1,52.82-14.1A21.17,21.17,0,0,1,113.33,24a21.18,21.18,0,0,1-7.67,40.92ZM65.39,2.41A26.94,26.94,0,0,0,38.66,27.06l0,.59-.5.32a18.76,18.76,0,0,0,10.2,34.52h57.34A18.77,18.77,0,0,0,112,26.07l-.49-.18-.21-.48A18.77,18.77,0,0,0,88.95,14.71l-.84.24-.49-.72A26.81,26.81,0,0,0,65.39,2.41Z" fill="#00abff"/><path d="M74,32.63a8.53,8.53,0,0,0-6.13-2.53,7.94,7.94,0,0,0-8.27,8.07A8.07,8.07,0,0,0,67.86,46a8.27,8.27,0,0,0,6.66-3.29l1.88,2.56a11.47,11.47,0,0,1-8.58,3.8A11.13,11.13,0,0,1,56.56,37.8c0-6.19,5.29-10.8,11.3-10.8a11.39,11.39,0,0,1,8.07,3.32Z" fill="#00abff"/><path d="M87.85,49.08a11.13,11.13,0,0,1-8.63-4.3l2.19-2.05A8.28,8.28,0,0,0,87.85,46c3.09,0,6.21-1.18,6.21-3.8C94.06,39,90.89,39,87.85,39c-5,0-7.73-1.86-7.73-5.43,0-3.4,3.23-6.58,7.73-6.58a11.43,11.43,0,0,1,8.44,3.32l-1.91,2.25a9.07,9.07,0,0,0-6.52-2.47c-2.36,0-4.33,1.63-4.33,3.46,0,1.27.9,2.42,4.47,2.42,7.34,0,9.22,2.28,9.22,6.24C97.21,46.43,93.16,49.08,87.85,49.08Z" fill="#00abff"/><path d="M42.11,40.69V37.94L53,30.8v3.66l-7.79,4.86L53,44.18v3.65Z" fill="#00abff"/><path d="M101.57,47.84V44.18l7.79-4.86-7.79-4.86V30.8l10.94,7.14v2.76Z" fill="#00abff"/><path d="M171.34,33.09a13.47,13.47,0,0,0,1.07,5.33,13.91,13.91,0,0,0,2.91,4.37,13.73,13.73,0,0,0,4.34,3A13.18,13.18,0,0,0,185,46.85a13.59,13.59,0,0,0,5.57-1.15A13.31,13.31,0,0,0,195,42.53a2.06,2.06,0,0,1,1.09-.64,1.42,1.42,0,0,1,1.2.21,1.6,1.6,0,0,1,.59,1.31,2,2,0,0,1-.48,1.36,16.46,16.46,0,0,1-5.54,4A16.82,16.82,0,0,1,185,50.15a16.52,16.52,0,0,1-6.61-1.33A16.9,16.9,0,0,1,173,45.17a17.34,17.34,0,0,1-3.62-5.44,17.19,17.19,0,0,1,0-13.27,17.13,17.13,0,0,1,9-9.12,16.8,16.8,0,0,1,13.3,0,17.52,17.52,0,0,1,5.46,3.78,2.67,2.67,0,0,1,.64,1.07,1.38,1.38,0,0,1-.16,1.23,1.54,1.54,0,0,1-1.25.69A1.75,1.75,0,0,1,195,23.6a23.48,23.48,0,0,0-4.48-3A11.72,11.72,0,0,0,185,19.28a13.18,13.18,0,0,0-5.33,1.09,13.54,13.54,0,0,0-4.34,3,14.26,14.26,0,0,0-2.91,4.4A13.47,13.47,0,0,0,171.34,33.09Z" fill="#00abff"/><path d="M210.9,48.55a1.64,1.64,0,0,1-1.65,1.65,8.84,8.84,0,0,1-4.1-1A8.62,8.62,0,0,1,201,44.18a9.29,9.29,0,0,1-.45-2.67V17.63a1.65,1.65,0,1,1,3.31,0V41.51a6.54,6.54,0,0,0,.19,1.28,5.35,5.35,0,0,0,.77,1.76,5.17,5.17,0,0,0,4.48,2.35,1.64,1.64,0,0,1,1.65,1.65Z" fill="#00abff"/><path d="M223.32,24.4a11.79,11.79,0,0,1,4.88,1,13.45,13.45,0,0,1,6.88,6.9,12.55,12.55,0,0,1,0,9.94,13.42,13.42,0,0,1-2.75,4.08,12.72,12.72,0,0,1-9.14,3.78,12.88,12.88,0,0,1-9.06-3.63,12.44,12.44,0,0,1-2.77-4.05,12.76,12.76,0,0,1-1-5.12,12.67,12.67,0,0,1,3.71-9,13.28,13.28,0,0,1,4.1-2.77A14,14,0,0,1,223.32,24.4Zm-9.65,13a9.26,9.26,0,0,0,.75,3.7,9.64,9.64,0,0,0,5.09,5.09,9.26,9.26,0,0,0,3.7.75,9.45,9.45,0,0,0,3.73-.75A9.57,9.57,0,0,0,230,44.1a9.68,9.68,0,0,0,2.05-3,9.28,9.28,0,0,0,.75-3.7,9.47,9.47,0,0,0-.75-3.73,9.5,9.5,0,0,0-5.12-5.12,9.45,9.45,0,0,0-3.73-.75,9.26,9.26,0,0,0-3.7.75,9.58,9.58,0,0,0-5.09,5.12A9.45,9.45,0,0,0,213.67,37.36Z" fill="#00abff"/><path d="M238.52,25.95a1.65,1.65,0,1,1,3.3,0V37.36a9.26,9.26,0,0,0,.75,3.7,9.63,9.63,0,0,0,5.09,5.09,9.57,9.57,0,0,0,7.41,0,9.64,9.64,0,0,0,5.09-5.09,9.26,9.26,0,0,0,.75-3.7V25.95a1.65,1.65,0,1,1,3.3,0V37.36a12.51,12.51,0,0,1-1,5,12.83,12.83,0,0,1-6.82,6.82,12.9,12.9,0,0,1-10,0,12.83,12.83,0,0,1-6.82-6.82,12.5,12.5,0,0,1-1-5Z" fill="#00abff"/><path d="M278.77,24.4a11.56,11.56,0,0,1,5.44,1.52,17.58,17.58,0,0,1,4.21,3.33V17.63a1.65,1.65,0,1,1,3.3,0V37.36a12.78,12.78,0,0,1-1,5.12,12.44,12.44,0,0,1-2.77,4.05,12.77,12.77,0,0,1-4.1,2.67,13,13,0,0,1-5,1,12.72,12.72,0,0,1-9.14-3.78A13.4,13.4,0,0,1,267,42.29a12.56,12.56,0,0,1,0-9.94,13.44,13.44,0,0,1,6.88-6.9A11.79,11.79,0,0,1,278.77,24.4Zm9.65,13a10.89,10.89,0,0,0-.88-3.84,9.86,9.86,0,0,0-2.05-3,9.31,9.31,0,0,0-6.61-2.72,9.45,9.45,0,0,0-3.73.75A9.5,9.5,0,0,0,270,33.62a9.43,9.43,0,0,0-.75,3.73,9.24,9.24,0,0,0,.75,3.7,9.57,9.57,0,0,0,5.12,5.09,9.45,9.45,0,0,0,3.73.75,9.26,9.26,0,0,0,3.7-.75,9.63,9.63,0,0,0,5.09-5.09A9.26,9.26,0,0,0,288.42,37.36Z" fill="#00abff"/><path d="M326.48,24.13a3.41,3.41,0,0,0-.69-1.84,6.22,6.22,0,0,0-1.73-1.57,9.42,9.42,0,0,0-2.53-1.09,11.3,11.3,0,0,0-3-.4,11.8,11.8,0,0,0-3.12.4,8.94,8.94,0,0,0-2.53,1.09,5.84,5.84,0,0,0-1.71,1.65,3.6,3.6,0,0,0-.64,2,2.83,2.83,0,0,0,.8,1.95,7.32,7.32,0,0,0,2,1.52,14.55,14.55,0,0,0,2.59,1.07,15.75,15.75,0,0,0,2.61.59,17.11,17.11,0,0,1,4.61,1.15,14.18,14.18,0,0,1,3.76,2.21A9.84,9.84,0,0,1,329.36,36a8.42,8.42,0,0,1,.91,3.87,9,9,0,0,1-.93,4,10,10,0,0,1-2.59,3.28,13.26,13.26,0,0,1-8.53,3,13.55,13.55,0,0,1-4.69-.8,12.38,12.38,0,0,1-3.84-2.21,10.39,10.39,0,0,1-2.59-3.28,8.81,8.81,0,0,1-.93-4,1.55,1.55,0,0,1,3.09,0,5.88,5.88,0,0,0,.69,2.8A7.19,7.19,0,0,0,311.85,45a9.35,9.35,0,0,0,2.82,1.52,10.67,10.67,0,0,0,3.49.56,10.91,10.91,0,0,0,3.52-.56A10,10,0,0,0,324.59,45a6.93,6.93,0,0,0,1.95-2.27,5.09,5.09,0,0,0,.59-2.8,5.64,5.64,0,0,0-.85-2.59,8.4,8.4,0,0,0-1.92-2.13,10.79,10.79,0,0,0-2.69-1.55,14.74,14.74,0,0,0-3.17-.88,17.2,17.2,0,0,1-4.29-.85,13.86,13.86,0,0,1-3.6-1.79,9.11,9.11,0,0,1-2.48-2.56,5.88,5.88,0,0,1-.93-3.23,6.44,6.44,0,0,1,.88-3.28,8.84,8.84,0,0,1,2.43-2.67,12.5,12.5,0,0,1,3.6-1.81,14.85,14.85,0,0,1,8.8,0,12.5,12.5,0,0,1,3.6,1.81,8.84,8.84,0,0,1,2.43,2.67,6.44,6.44,0,0,1,.88,3.28A1.64,1.64,0,0,1,328.13,26a1.47,1.47,0,0,1-1.15-.51A2.18,2.18,0,0,1,326.48,24.13Z" fill="#c5cbe6"/><path d="M352,30.48a11.11,11.11,0,0,0-3-1.89,9.39,9.39,0,0,0-3.68-.72,9.25,9.25,0,0,0-3.7.75,9.57,9.57,0,0,0-5.09,5.12,9.46,9.46,0,0,0-.75,3.73,9.26,9.26,0,0,0,.75,3.71,9.64,9.64,0,0,0,5.09,5.09,9.23,9.23,0,0,0,3.7.75,9.37,9.37,0,0,0,3.68-.72,9.92,9.92,0,0,0,3-2,1.67,1.67,0,0,1,2.35,0,1.54,1.54,0,0,1,.45,1.2,1.91,1.91,0,0,1-.61,1.31,11.89,11.89,0,0,1-1.31,1.09,11.33,11.33,0,0,1-2,1.15,13.94,13.94,0,0,1-2.56.88,13,13,0,0,1-12.13-3.28,12.44,12.44,0,0,1-2.77-4.05,12.76,12.76,0,0,1-1-5.12,12.67,12.67,0,0,1,3.7-9,13.27,13.27,0,0,1,4.11-2.77,14,14,0,0,1,5.14-1.15,10.45,10.45,0,0,1,3,.4,14.16,14.16,0,0,1,2.45,1,13.63,13.63,0,0,1,1.95,1.2q.85.64,1.39,1.12a2.19,2.19,0,0,1,.56,1,1.2,1.2,0,0,1-.35,1.31,1.67,1.67,0,0,1-2.35,0Z" fill="#c5cbe6"/><path d="M357.29,37.14a12.46,12.46,0,0,1,1-4.93A13,13,0,0,1,365,25.36a12.66,12.66,0,0,1,4.91-1.07,1.89,1.89,0,0,1,1.36.48,1.61,1.61,0,0,1,0,2.34,1.89,1.89,0,0,1-1.36.48,9.34,9.34,0,0,0-3.63.83,10,10,0,0,0-3,2.05,9.21,9.21,0,0,0-2,3,9.42,9.42,0,0,0-.72,3.65V48.55a1.65,1.65,0,1,1-3.31,0Z" fill="#c5cbe6"/><path d="M372.81,18.59a2.19,2.19,0,1,1,.64,1.55A2.1,2.1,0,0,1,372.81,18.59Zm.53,7.36a1.65,1.65,0,1,1,3.31,0v22.6a1.65,1.65,0,1,1-3.31,0Z" fill="#c5cbe6"/><path d="M392.48,50.2A11.53,11.53,0,0,1,387,48.69a17.48,17.48,0,0,1-4.21-3.33V58.2a1.65,1.65,0,1,1-3.31,0v-21a12.77,12.77,0,0,1,1-5.12,12.45,12.45,0,0,1,2.77-4.05,12.88,12.88,0,0,1,9.06-3.63,12.71,12.71,0,0,1,9.14,3.79,13.42,13.42,0,0,1,2.75,4.08,12.56,12.56,0,0,1,0,9.94,13.44,13.44,0,0,1-6.88,6.9A11.81,11.81,0,0,1,392.48,50.2Zm-9.65-13a9.77,9.77,0,0,0,.85,3.84,10.25,10.25,0,0,0,2.08,3,9.31,9.31,0,0,0,6.61,2.72,9.46,9.46,0,0,0,3.73-.75A9.5,9.5,0,0,0,401.22,41a9.47,9.47,0,0,0,.75-3.73,9.28,9.28,0,0,0-.75-3.7,9.58,9.58,0,0,0-5.12-5.09,9.48,9.48,0,0,0-3.73-.75,9.28,9.28,0,0,0-3.71.75,9.65,9.65,0,0,0-5.09,5.09A9.25,9.25,0,0,0,382.83,37.25Z" fill="#c5cbe6"/><path d="M407,17.63a1.65,1.65,0,1,1,3.31,0v6.56h11.78a1.9,1.9,0,0,1,1.36.48,1.61,1.61,0,0,1,0,2.35,1.9,1.9,0,0,1-1.36.48H410.34v9.86a9.26,9.26,0,0,0,.75,3.7,9.64,9.64,0,0,0,5.09,5.09,9.26,9.26,0,0,0,3.7.75,9.37,9.37,0,0,0,3.68-.72,9.25,9.25,0,0,0,3-2,1.68,1.68,0,0,1,1.09-.56,1.72,1.72,0,0,1,1.25.35,1.91,1.91,0,0,1,.53,1.07,1.7,1.7,0,0,1-.27,1.23A12.45,12.45,0,0,1,425,49.17a12.75,12.75,0,0,1-5.12,1,12.49,12.49,0,0,1-5-1A12.83,12.83,0,0,1,408,42.37a12.5,12.5,0,0,1-1-5Z" fill="#c5cbe6"/><path d="M430.65,18.59a2.19,2.19,0,1,1,.64,1.55A2.1,2.1,0,0,1,430.65,18.59Zm.53,7.36a1.65,1.65,0,1,1,3.31,0v22.6a1.65,1.65,0,1,1-3.31,0Z" fill="#c5cbe6"/><path d="M437.26,37.14a12.5,12.5,0,0,1,1-5,12.82,12.82,0,0,1,6.82-6.82,12.9,12.9,0,0,1,10,0,12.82,12.82,0,0,1,6.82,6.82,12.52,12.52,0,0,1,1,5V48.55a1.65,1.65,0,1,1-3.3,0V37.14a9.26,9.26,0,0,0-.75-3.7,9.64,9.64,0,0,0-5.09-5.09,9.57,9.57,0,0,0-7.41,0,9.63,9.63,0,0,0-5.09,5.09,9.26,9.26,0,0,0-.75,3.7V48.55a1.65,1.65,0,1,1-3.3,0Z" fill="#c5cbe6"/><path d="M475.22,59.75a3.42,3.42,0,0,0-1.44.53,3.54,3.54,0,0,0-1.23,1.17,1.65,1.65,0,0,1-1,.8,1.77,1.77,0,0,1-1.28-.05,1.54,1.54,0,0,1-.77-1,1.71,1.71,0,0,1,.08-1.23,6.25,6.25,0,0,1,2.24-2.53,6,6,0,0,1,3.36-1h7A5.49,5.49,0,0,0,487.35,49a5.18,5.18,0,0,0-1.15-1.73,13.77,13.77,0,0,1-3.73,2.08,12.55,12.55,0,0,1-4.37.75A12.87,12.87,0,0,1,469,46.42a12.43,12.43,0,0,1-2.77-4.05,12.78,12.78,0,0,1-1-5.12,12.67,12.67,0,0,1,3.7-9,13.26,13.26,0,0,1,4.1-2.77,14.05,14.05,0,0,1,5.14-1.15,11.8,11.8,0,0,1,4.88,1,13.44,13.44,0,0,1,6.88,6.9,12.24,12.24,0,0,1,1,5,12.47,12.47,0,0,1-2.56,7.62,9,9,0,0,1,1.87,2.75,8.62,8.62,0,0,1,0,6.77,9.31,9.31,0,0,1-1.87,2.77,8.65,8.65,0,0,1-2.77,1.89,8.5,8.5,0,0,1-3.41.69Zm-6.66-22.5A9.24,9.24,0,0,0,469.3,41,9.64,9.64,0,0,0,474.39,46a9.25,9.25,0,0,0,3.71.75,9.44,9.44,0,0,0,3.73-.75A9.56,9.56,0,0,0,484.9,44a9.66,9.66,0,0,0,2.05-3,9.26,9.26,0,0,0,.75-3.71,9.46,9.46,0,0,0-.75-3.73,9.5,9.5,0,0,0-5.12-5.12,9.48,9.48,0,0,0-3.73-.75,9.28,9.28,0,0,0-3.71.75,9.68,9.68,0,0,0-3,2.05,9.56,9.56,0,0,0-2.05,3.07A9.44,9.44,0,0,0,468.56,37.25Z" fill="#c5cbe6"/></svg>