<svg id="156b20cf-36cf-4998-9a72-05ca6c6c30ff" data-name="Ğ¡Ğ»Ğ¾Ğ¹ 1" xmlns="http://www.w3.org/2000/svg" width="302.9" height="144.89" viewBox="0 0 302.9 144.89"><title>cs1</title><path d="M101.37,65.66h-8a1.2,1.2,0,0,0-1,.6l-5.27,9H79v2.41h8.78a1.2,1.2,0,0,0,1-.6l5.27-9h7.33a1.2,1.2,0,1,0,0-2.41Z" fill="#0088fb"/><path d="M111.8,49.62H84.08l-8.53-5.43a1.2,1.2,0,0,0-.65-.19H66v2.41h8.6l8.53,5.43a1.2,1.2,0,0,0,.65.19H111.8a1.2,1.2,0,0,0,0-2.41Z" fill="#0088fb"/><path d="M125.43,28.77h-25l-6.06-9.09a1.2,1.2,0,0,0-1-.54H83v2.41h9.75l6.06,9.09a1.2,1.2,0,0,0,1,.54h25.66a1.2,1.2,0,0,0,0-2.41Z" fill="#0088fb"/><path d="M223,75.28h-7l-5.27-9a1.2,1.2,0,0,0-1-.6h-8a1.2,1.2,0,1,0,0,2.41h7.33l5.27,9a1.2,1.2,0,0,0,1,.6H223Z" fill="#0088fb"/><path d="M237,44h-8.87a1.2,1.2,0,0,0-.65.19l-8.53,5.43H191.19a1.2,1.2,0,0,0,0,2.41h28.07a1.2,1.2,0,0,0,.65-.19l8.53-5.43H237Z" fill="#0088fb"/><path d="M220,19.14H209.64a1.2,1.2,0,0,0-1,.54l-6.06,9.09h-25a1.2,1.2,0,0,0,0,2.41h25.66a1.2,1.2,0,0,0,1-.54l6.06-9.09H220Z" fill="#0088fb"/><path d="M224.08,26.36a6,6,0,1,1,6-6A6,6,0,0,1,224.08,26.36Zm0-9.62a3.61,3.61,0,1,0,3.61,3.61A3.61,3.61,0,0,0,224.08,16.74Z" fill="#0088fb"/><path d="M241.72,51.22a6,6,0,1,1,6-6A6,6,0,0,1,241.72,51.22Zm0-9.62a3.61,3.61,0,1,0,3.61,3.61A3.61,3.61,0,0,0,241.72,41.6Z" fill="#0088fb"/><path d="M228.09,82.5a6,6,0,1,1,6-6A6,6,0,0,1,228.09,82.5Zm0-9.62a3.61,3.61,0,1,0,3.61,3.61A3.61,3.61,0,0,0,228.09,72.88Z" fill="#0088fb"/><path d="M78.92,26.36a6,6,0,1,1,6-6A6,6,0,0,1,78.92,26.36Zm0-9.62a3.61,3.61,0,1,0,3.61,3.61A3.61,3.61,0,0,0,78.92,16.74Z" fill="#0088fb"/><path d="M61.27,51.22a6,6,0,1,1,6-6A6,6,0,0,1,61.27,51.22Zm0-9.62a3.61,3.61,0,1,0,3.61,3.61A3.61,3.61,0,0,0,61.27,41.6Z" fill="#0088fb"/><path d="M74.91,82.5a6,6,0,1,1,6-6A6,6,0,0,1,74.91,82.5Zm0-9.62a3.61,3.61,0,1,0,3.61,3.61A3.61,3.61,0,0,0,74.91,72.88Z" fill="#0088fb"/><path d="M195.22,31a24.86,24.86,0,0,0-29.64-14.17A34.88,34.88,0,0,0,101.9,33.57a24.86,24.86,0,0,0,13.51,45.73h71.38A24.86,24.86,0,0,0,195.22,31Z" fill="#fff"/><path d="M186.78,80.79H115.41a26.36,26.36,0,0,1-14.94-48.08,36.38,36.38,0,0,1,65.75-17.56,26.36,26.36,0,0,1,30.12,14.7,26.36,26.36,0,0,1-9.55,50.94ZM136.66,3a33.54,33.54,0,0,0-33.27,30.69l-.06.74-.62.4a23.36,23.36,0,0,0,12.69,43h71.38a23.36,23.36,0,0,0,7.93-45.34l-.61-.22-.26-.6A23.36,23.36,0,0,0,166,18.32l-1,.29-.61-.9A33.38,33.38,0,0,0,136.66,3Z" fill="#0088fb"/><path d="M3.1,117.45a12.63,12.63,0,0,0,1,5,13,13,0,0,0,2.73,4.1,12.87,12.87,0,0,0,4.07,2.78,12.36,12.36,0,0,0,5,1,12.75,12.75,0,0,0,5.23-1.07,12.49,12.49,0,0,0,4.17-3,1.93,1.93,0,0,1,1-.6,1.33,1.33,0,0,1,1.13.2,1.5,1.5,0,0,1,.55,1.22,1.83,1.83,0,0,1-.45,1.28,15.44,15.44,0,0,1-5.2,3.72,15.78,15.78,0,0,1-6.45,1.33,15.5,15.5,0,0,1-6.2-1.25,15.85,15.85,0,0,1-5.05-3.42,16.26,16.26,0,0,1-3.4-5.1,16.13,16.13,0,0,1,0-12.45,16.06,16.06,0,0,1,8.45-8.55,15.24,15.24,0,0,1,6.2-1.27,15.28,15.28,0,0,1,6.28,1.3,16.44,16.44,0,0,1,5.13,3.55,2.51,2.51,0,0,1,.6,1,1.29,1.29,0,0,1-.15,1.15,1.44,1.44,0,0,1-1.17.65,1.64,1.64,0,0,1-1.33-.5,22,22,0,0,0-4.2-2.8,11,11,0,0,0-5.15-1.25,12.37,12.37,0,0,0-5,1,12.7,12.7,0,0,0-4.07,2.8,13.38,13.38,0,0,0-2.73,4.13A12.63,12.63,0,0,0,3.1,117.45Z" fill="#0088fb"/><path d="M40.2,132a1.54,1.54,0,0,1-1.55,1.55,8.3,8.3,0,0,1-3.85-.9,8.08,8.08,0,0,1-3.93-4.75,8.72,8.72,0,0,1-.42-2.5V103a1.55,1.55,0,1,1,3.1,0v22.4a6.13,6.13,0,0,0,.17,1.2,5,5,0,0,0,.72,1.65,4.85,4.85,0,0,0,4.2,2.2A1.54,1.54,0,0,1,40.2,132Z" fill="#0088fb"/><path d="M51.85,109.3a11.06,11.06,0,0,1,4.58,1,12.61,12.61,0,0,1,6.45,6.47,11.77,11.77,0,0,1,0,9.33,12.59,12.59,0,0,1-2.58,3.83,11.93,11.93,0,0,1-8.58,3.55,12.08,12.08,0,0,1-8.5-3.4,11.67,11.67,0,0,1-2.6-3.8,12,12,0,0,1-1-4.8A11.88,11.88,0,0,1,43.17,113a12.46,12.46,0,0,1,3.85-2.6A13.18,13.18,0,0,1,51.85,109.3Zm-9,12.15a8.68,8.68,0,0,0,.7,3.47,9,9,0,0,0,4.78,4.78,8.68,8.68,0,0,0,3.47.7,8.86,8.86,0,0,0,3.5-.7,9,9,0,0,0,2.88-1.92A9.07,9.07,0,0,0,60,124.92a8.7,8.7,0,0,0,.7-3.47A8.88,8.88,0,0,0,60,118a8.91,8.91,0,0,0-4.8-4.8,8.86,8.86,0,0,0-3.5-.7,8.68,8.68,0,0,0-3.47.7A9,9,0,0,0,43.5,118,8.86,8.86,0,0,0,42.8,121.45Z" fill="#0088fb"/><path d="M66.1,110.75a1.55,1.55,0,1,1,3.1,0v10.7a8.68,8.68,0,0,0,.7,3.47,9,9,0,0,0,4.78,4.78,9,9,0,0,0,7,0,9,9,0,0,0,4.77-4.78,8.68,8.68,0,0,0,.7-3.47v-10.7a1.55,1.55,0,1,1,3.1,0v10.7a11.74,11.74,0,0,1-.95,4.7,12,12,0,0,1-6.4,6.4,12.1,12.1,0,0,1-9.4,0,12,12,0,0,1-6.4-6.4,11.72,11.72,0,0,1-1-4.7Z" fill="#0088fb"/><path d="M103.85,109.3a10.84,10.84,0,0,1,5.1,1.42,16.48,16.48,0,0,1,4,3.13V103a1.55,1.55,0,1,1,3.1,0v18.5a12,12,0,0,1-1,4.8,11.67,11.67,0,0,1-2.6,3.8,12,12,0,0,1-3.85,2.5,12.16,12.16,0,0,1-4.65.9,11.93,11.93,0,0,1-8.58-3.55,12.57,12.57,0,0,1-2.58-3.83,11.78,11.78,0,0,1,0-9.33,12.61,12.61,0,0,1,6.45-6.47A11.05,11.05,0,0,1,103.85,109.3Zm9,12.15a10.21,10.21,0,0,0-.83-3.6,9.25,9.25,0,0,0-1.92-2.85,8.73,8.73,0,0,0-6.2-2.55,8.86,8.86,0,0,0-3.5.7,8.91,8.91,0,0,0-4.8,4.8,8.85,8.85,0,0,0-.7,3.5,8.67,8.67,0,0,0,.7,3.47,9,9,0,0,0,4.8,4.78,8.86,8.86,0,0,0,3.5.7,8.69,8.69,0,0,0,3.47-.7,9,9,0,0,0,4.78-4.78A8.68,8.68,0,0,0,112.9,121.45Z" fill="#0088fb"/><path d="M148.6,109a3.2,3.2,0,0,0-.65-1.72,5.84,5.84,0,0,0-1.62-1.48,8.83,8.83,0,0,0-2.37-1,10.6,10.6,0,0,0-2.85-.37,11.07,11.07,0,0,0-2.92.38,8.38,8.38,0,0,0-2.37,1,5.47,5.47,0,0,0-1.6,1.55,3.37,3.37,0,0,0-.6,1.9,2.65,2.65,0,0,0,.75,1.83,6.86,6.86,0,0,0,1.88,1.42,13.65,13.65,0,0,0,2.42,1,14.77,14.77,0,0,0,2.45.55,16,16,0,0,1,4.33,1.08,13.3,13.3,0,0,1,3.52,2.08,9.23,9.23,0,0,1,2.35,2.92,7.9,7.9,0,0,1,.85,3.63,8.43,8.43,0,0,1-.87,3.78,9.41,9.41,0,0,1-2.42,3.08,12.44,12.44,0,0,1-8,2.85,12.71,12.71,0,0,1-4.4-.75,11.62,11.62,0,0,1-3.6-2.08,9.74,9.74,0,0,1-2.42-3.08,8.26,8.26,0,0,1-.87-3.75,1.45,1.45,0,0,1,2.9,0,5.51,5.51,0,0,0,.65,2.63,6.74,6.74,0,0,0,1.78,2.12,8.77,8.77,0,0,0,2.65,1.43,10,10,0,0,0,3.28.52,10.23,10.23,0,0,0,3.3-.52,9.4,9.4,0,0,0,2.72-1.43,6.5,6.5,0,0,0,1.83-2.12,4.77,4.77,0,0,0,.55-2.62,5.29,5.29,0,0,0-.8-2.42,7.88,7.88,0,0,0-1.8-2,10.12,10.12,0,0,0-2.53-1.45,13.83,13.83,0,0,0-3-.82,16.13,16.13,0,0,1-4-.8,13,13,0,0,1-3.37-1.67,8.54,8.54,0,0,1-2.32-2.4,5.52,5.52,0,0,1-.87-3,6,6,0,0,1,.82-3.08,8.29,8.29,0,0,1,2.28-2.5A11.72,11.72,0,0,1,137,102a13.93,13.93,0,0,1,8.25,0,11.72,11.72,0,0,1,3.38,1.7,8.29,8.29,0,0,1,2.28,2.5,6,6,0,0,1,.82,3.08,1.54,1.54,0,0,1-1.55,1.55,1.38,1.38,0,0,1-1.08-.47A2,2,0,0,1,148.6,109Z" fill="#2c2c2c"/><path d="M172.5,115a10.42,10.42,0,0,0-2.85-1.78,8.8,8.8,0,0,0-3.45-.67,8.68,8.68,0,0,0-3.47.7,9,9,0,0,0-4.78,4.8,8.87,8.87,0,0,0-.7,3.5,8.69,8.69,0,0,0,.7,3.48,9,9,0,0,0,4.78,4.77,8.66,8.66,0,0,0,3.47.7,8.79,8.79,0,0,0,3.45-.67A9.31,9.31,0,0,0,172.5,128a1.57,1.57,0,0,1,2.2,0,1.45,1.45,0,0,1,.42,1.12,1.79,1.79,0,0,1-.58,1.22,11.15,11.15,0,0,1-1.22,1,10.63,10.63,0,0,1-1.85,1.08,13.07,13.07,0,0,1-2.4.82,12.22,12.22,0,0,1-11.37-3.07,11.66,11.66,0,0,1-2.6-3.8,12,12,0,0,1-1-4.8,11.88,11.88,0,0,1,3.47-8.47,12.45,12.45,0,0,1,3.85-2.6,13.17,13.17,0,0,1,4.82-1.07,9.8,9.8,0,0,1,2.78.38,13.28,13.28,0,0,1,2.3.9,12.78,12.78,0,0,1,1.83,1.13q.8.6,1.3,1a2.05,2.05,0,0,1,.53.93,1.13,1.13,0,0,1-.33,1.22,1.57,1.57,0,0,1-2.2,0Z" fill="#2c2c2c"/><path d="M177.5,121.25a11.69,11.69,0,0,1,.93-4.62,12.16,12.16,0,0,1,6.32-6.42,11.87,11.87,0,0,1,4.6-1,1.77,1.77,0,0,1,1.27.45,1.51,1.51,0,0,1,0,2.2,1.77,1.77,0,0,1-1.27.45,8.76,8.76,0,0,0-3.4.78,9.41,9.41,0,0,0-2.8,1.92,8.64,8.64,0,0,0-1.87,2.83,8.83,8.83,0,0,0-.67,3.42V132a1.55,1.55,0,1,1-3.1,0Z" fill="#2c2c2c"/><path d="M192,103.85a2.05,2.05,0,1,1,.6,1.45A2,2,0,0,1,192,103.85Zm.5,6.9a1.55,1.55,0,1,1,3.1,0V132a1.55,1.55,0,1,1-3.1,0Z" fill="#2c2c2c"/><path d="M210.5,133.5a10.81,10.81,0,0,1-5.1-1.42,16.4,16.4,0,0,1-4-3.12v12a1.55,1.55,0,1,1-3.1,0V121.35a12,12,0,0,1,1-4.8,11.68,11.68,0,0,1,2.6-3.8,12.08,12.08,0,0,1,8.5-3.4A11.92,11.92,0,0,1,219,112.9a12.58,12.58,0,0,1,2.58,3.82,11.78,11.78,0,0,1,0,9.33,12.6,12.6,0,0,1-6.45,6.48A11.07,11.07,0,0,1,210.5,133.5Zm-9-12.15a9.16,9.16,0,0,0,.8,3.6,9.61,9.61,0,0,0,2,2.85,8.73,8.73,0,0,0,6.2,2.55,8.87,8.87,0,0,0,3.5-.7,8.91,8.91,0,0,0,4.8-4.8,8.88,8.88,0,0,0,.7-3.5,8.71,8.71,0,0,0-.7-3.47,9,9,0,0,0-4.8-4.78,8.89,8.89,0,0,0-3.5-.7,8.7,8.7,0,0,0-3.48.7,9,9,0,0,0-4.77,4.78A8.67,8.67,0,0,0,201.45,121.35Z" fill="#2c2c2c"/><path d="M224.15,103a1.55,1.55,0,1,1,3.1,0v6.15h11a1.78,1.78,0,0,1,1.27.45,1.51,1.51,0,0,1,0,2.2,1.78,1.78,0,0,1-1.27.45h-11v9.25a8.68,8.68,0,0,0,.7,3.47,9,9,0,0,0,4.78,4.78,8.68,8.68,0,0,0,3.47.7,8.78,8.78,0,0,0,3.45-.68,8.68,8.68,0,0,0,2.8-1.87,1.57,1.57,0,0,1,1-.52,1.62,1.62,0,0,1,1.17.33,1.79,1.79,0,0,1,.5,1,1.59,1.59,0,0,1-.25,1.15,11.68,11.68,0,0,1-3.9,2.73,12,12,0,0,1-4.8,1,11.71,11.71,0,0,1-4.7-1,12,12,0,0,1-6.4-6.4,11.72,11.72,0,0,1-1-4.7Z" fill="#2c2c2c"/><path d="M246.29,103.85a2.05,2.05,0,1,1,.6,1.45A2,2,0,0,1,246.29,103.85Zm.5,6.9a1.55,1.55,0,1,1,3.1,0V132a1.55,1.55,0,1,1-3.1,0Z" fill="#2c2c2c"/><path d="M252.49,121.25a11.73,11.73,0,0,1,1-4.7,12,12,0,0,1,6.4-6.4,12.1,12.1,0,0,1,9.4,0,12,12,0,0,1,6.4,6.4,11.74,11.74,0,0,1,.95,4.7V132a1.55,1.55,0,1,1-3.1,0v-10.7a8.69,8.69,0,0,0-.7-3.47A9,9,0,0,0,268,113a9,9,0,0,0-7,0,9,9,0,0,0-4.78,4.78,8.69,8.69,0,0,0-.7,3.47V132a1.55,1.55,0,1,1-3.1,0Z" fill="#2c2c2c"/><path d="M288.1,142.45a3.2,3.2,0,0,0-1.35.5,3.32,3.32,0,0,0-1.15,1.1,1.55,1.55,0,0,1-.9.75,1.66,1.66,0,0,1-1.2,0,1.45,1.45,0,0,1-.73-.9,1.6,1.6,0,0,1,.08-1.15,5.86,5.86,0,0,1,2.1-2.37,5.58,5.58,0,0,1,3.15-.92h6.6a5.15,5.15,0,0,0,4.78-7.08,4.86,4.86,0,0,0-1.08-1.62,12.91,12.91,0,0,1-3.5,2,11.77,11.77,0,0,1-4.1.7,12.07,12.07,0,0,1-8.5-3.4,11.66,11.66,0,0,1-2.6-3.8,12,12,0,0,1-.95-4.8,11.88,11.88,0,0,1,3.47-8.47,12.44,12.44,0,0,1,3.85-2.6,13.18,13.18,0,0,1,4.83-1.08,11.07,11.07,0,0,1,4.58,1,12.6,12.6,0,0,1,6.45,6.48,11.48,11.48,0,0,1,1,4.7,11.7,11.7,0,0,1-2.4,7.15,8.41,8.41,0,0,1,1.75,2.58,8.09,8.09,0,0,1,0,6.35,8.73,8.73,0,0,1-1.75,2.6,8.11,8.11,0,0,1-2.6,1.77,8,8,0,0,1-3.2.65Zm-6.25-21.1a8.67,8.67,0,0,0,.7,3.48,9,9,0,0,0,4.77,4.77,8.67,8.67,0,0,0,3.48.7,8.85,8.85,0,0,0,3.5-.7,9,9,0,0,0,2.88-1.92,9.06,9.06,0,0,0,1.92-2.85,8.69,8.69,0,0,0,.7-3.48,8.87,8.87,0,0,0-.7-3.5,8.91,8.91,0,0,0-4.8-4.8,8.89,8.89,0,0,0-3.5-.7,8.71,8.71,0,0,0-3.48.7,9.08,9.08,0,0,0-2.85,1.92,9,9,0,0,0-1.92,2.88A8.85,8.85,0,0,0,281.85,121.35Z" fill="#2c2c2c"/><path d="M147.33,40.62a10.62,10.62,0,0,0-7.63-3.15c-5.81,0-10.29,4.17-10.29,10,0,5.64,4.87,9.77,10.33,9.77a10.3,10.3,0,0,0,8.3-4.09l2.34,3.18a14.28,14.28,0,0,1-10.68,4.73,13.86,13.86,0,0,1-14-14c0-7.7,6.58-13.44,14.07-13.44a14.18,14.18,0,0,1,10,4.13Z" fill="#0088fb"/><path d="M164.62,61.09a13.85,13.85,0,0,1-10.75-5.36l2.73-2.55a10.31,10.31,0,0,0,8,4.09c3.85,0,7.74-1.47,7.74-4.73,0-4-4-4-7.74-4-6.23,0-9.63-2.31-9.63-6.76,0-4.24,4-8.19,9.63-8.19a14.23,14.23,0,0,1,10.5,4.13l-2.38,2.8c-2.8-2.28-4.8-3.08-8.12-3.08-2.94,0-5.39,2-5.39,4.31,0,1.58,1.12,3,5.57,3,9.14,0,11.48,2.84,11.48,7.77C176.28,57.8,171.24,61.09,164.62,61.09Z" fill="#0088fb"/><path d="M107.68,50.66V47.23l13.62-8.89v4.55l-9.7,6.06,9.7,6.06v4.55Z" fill="#0088fb"/><path d="M181.7,59.55V55l9.7-6.06-9.7-6.06V38.34l13.62,8.89v3.43Z" fill="#0088fb"/></svg>